<svg xmlns="http://www.w3.org/2000/svg" viewBox="0 0 341.06 25.14"><defs><style>.cls-1{fill:#333434;}</style></defs><g id="レイヤー_2" data-name="レイヤー 2"><g id="レイヤー_1-2" data-name="レイヤー 1"><path class="cls-1" d="M8,20.41v.14c0,1.49-.59,2.16-1.15,2.16A1.06,1.06,0,0,1,6,22.09a3.71,3.71,0,0,0-2.27-1.4,6.77,6.77,0,0,1-1.59.76A4.24,4.24,0,0,1,1,21.64c-.67,0-.95-.28-.95-.7S.67,19.4,1.12,19.4c.08,0,.14.06.22.09s.14.14.31.14,1.12-.25,5.21-2.86c0-.64,0-1.31,0-2,0-1.17,0-2.32-.09-3.41a7.84,7.84,0,0,1-3.44.95C1.43,12.35,1,11.2,1,10.58c0-.11,0-.16.11-.16a1.28,1.28,0,0,1,.4.11,7,7,0,0,0,2.1.31,6.16,6.16,0,0,0,3.16-.9C6.52,6.69,6.38,5.68,5,5.68c-.36,0-.5-.08-.5-.22a1.11,1.11,0,0,1,1.2-.84C6.64,4.62,8,5.32,8,6.5a6.21,6.21,0,0,1,0,.7,10.25,10.25,0,0,0,1.82.36.78.78,0,0,1,.82.81c0,1-1.18,1.68-2.72,2.49,0,1.71.06,3.5.08,5.24a13.33,13.33,0,0,1,7-2.49c3,0,4.57,1.43,4.57,3.3,0,2.94-3.45,4.93-5.83,4.93a2.63,2.63,0,0,1-2.91-2.77A6,6,0,0,1,12,15.57s.08,0,.08.19a4,4,0,0,1-.14.76A5.75,5.75,0,0,0,11.68,18a2,2,0,0,0,2.1,2.21c2.1,0,4.2-1.6,4.2-3.53,0-1.71-1.91-2.32-3.5-2.32-2.41,0-4.54,1.42-6.53,3C8,18.45,8,19.49,8,20.41Zm-3.81,0a12.49,12.49,0,0,0,1.71.17c.75,0,.78-.22.81-.61.06-.54.06-1.1.08-1.63C5.91,19.07,5,19.8,4.2,20.38Zm3.67-11a8.56,8.56,0,0,0,.84-.56A.65.65,0,0,0,8.9,8.4c0-.22-.25-.45-1-.84a8.64,8.64,0,0,0,0,.92Zm11.79,1.21a5.8,5.8,0,0,0-1.46.64,1.33,1.33,0,0,1-.39.17c-.06,0-.09,0-.09-.06A.79.79,0,0,1,18,11a3,3,0,0,0,.87-1.68c0-.23-.12-.87-1.4-.87a3.41,3.41,0,0,0-2,.67,1.43,1.43,0,0,1-.62.28c-.06,0-.08,0-.08-.06a4.46,4.46,0,0,1,3.75-2c1.73,0,3.33,1,3.33,2.15,0,.37-.25.59-.62.76C20.66,10.44,20.66,10.25,19.66,10.56Zm23.84-.9H38.38v2.83c0,4.45,0,9.15.11,11.42A1.17,1.17,0,0,1,37.29,25a.81.81,0,0,1-.84-.89V24c.25-4.22.36-10.58.36-15.76,0-1.43,0-2.77,0-3.95A24.5,24.5,0,0,0,36.47.78a.8.8,0,0,1,0-.19c0-.09,0-.11.08-.11a11.64,11.64,0,0,1,2.6,1.14,1.14,1.14,0,0,1,.14.12h3.64a.51.51,0,0,0,.4-.23c.14-.22.56-.64.75-.64s2.16,1.06,2.16,1.54c0,.25-.34.42-.59.59-.48.3-.51.5-.51,1.14v.37c0,1.43.12,4.23.17,5.26a1,1,0,0,1-1.06,1.07.69.69,0,0,1-.73-.76V9.66ZM38.43,6c0,.9,0,1.91,0,3h5.15c0-.84,0-1.9,0-3ZM39,2.49c-.45.23-.47.28-.5,1,0,.48,0,1.06-.06,1.74h5.13c0-1,0-1.85-.06-2.44a.3.3,0,0,0-.31-.31ZM49.52,20.38l0-1.06H44.17l0,1.82a1,1,0,0,1-1,.9.65.65,0,0,1-.73-.68v-.14c.17-1.56.19-4.34.19-5.62a17.4,17.4,0,0,0-.28-3c0-.06,0-.11,0-.14s0-.08.08-.08a7.29,7.29,0,0,1,2.35,1H49a.46.46,0,0,0,.37-.23c.3-.42.5-.67.75-.67.5,0,2,1.15,2,1.57,0,.25-.28.47-.58.64S51,15,51,16.07s.12,3,.17,4.09a1,1,0,0,1-1,1.06.71.71,0,0,1-.7-.81Zm-4.7-6.32c-.65.33-.65.33-.67,1v.72c0,.76,0,1.85,0,2.89h5.38c0-.79,0-1.54,0-2.27s0-1.43-.06-2c0-.08-.08-.3-.25-.3Zm5.63-4.4v.25a1,1,0,0,1-1.07.95.74.74,0,0,1-.78-.78V10c.17-1.85.19-3.33.19-4.4a25.84,25.84,0,0,0-.3-4.73.59.59,0,0,1,0-.2c0-.08,0-.11,0-.11a10.84,10.84,0,0,1,2.55,1.09s.11.06.14.12h4a.48.48,0,0,0,.39-.23c.15-.22.57-.64.76-.64s2.3,1,2.3,1.54c0,.25-.34.42-.59.59-.56.33-.56.36-.56,3.72,0,3.86.11,9.94.17,12.26,0,.45.08,2.22.08,2.61,0,2.83-2.91,3.22-3.39,3.22-.28,0-.36-.14-.5-.42-.34-.76-3.36-1.82-3.36-2,0,0,0,0,.08,0a1.51,1.51,0,0,1,.34,0,24.53,24.53,0,0,0,3.22.34c1.2,0,1.79-.37,1.82-1.49,0-.61,0-1.79,0-3.24,0-2.36,0-5.49-.06-8.32ZM51,2.49a.76.76,0,0,1-.22.14c-.36.2-.33.23-.36.93,0,.3,0,.92,0,1.68h5.52c0-1.21-.06-2.08-.09-2.44a.3.3,0,0,0-.31-.31ZM50.39,6c0,.9,0,1.94,0,3H56c0-1.06,0-2.07-.05-3ZM76.6,8.82a10.91,10.91,0,0,1-.28,2,12.08,12.08,0,0,0-.25,2.46c0,4.74,2.83,5.6,3.27,5.6a1,1,0,0,0,.9-.53c.56-.95,1.23-2.6,1.74-3.67.3-.61.47-.84.53-.84s0,.06,0,.12a5.2,5.2,0,0,1-.16.95,18.58,18.58,0,0,0-.54,4c0,.48,0,.81.06,1.15v.17c0,.84-.62,1.2-1.4,1.2a4.49,4.49,0,0,1-2.66-1c-2.44-2-3.28-4.62-3.28-8.35,0-.59,0-1.2.06-1.85,0-.47.06-1,.06-1.42a9.66,9.66,0,0,0-.2-2.1,2,2,0,0,1-.06-.34c0-.17.09-.25.2-.25A2.73,2.73,0,0,1,76.6,8.82Zm15.12,5.74a6.16,6.16,0,0,0-4.4-5.49c-.81-.19-1.2-.39-1.2-.5s.2-.11.56-.11c3.86,0,7.11,3,7.11,5.74,0,1-.56,1.51-1.12,1.51S91.78,15.34,91.72,14.56Zm29.71-11.7c-5.27,8-12.1,11.56-13.31,11.56-.05,0-.08,0-.08,0s.14-.19.45-.39A34,34,0,0,0,119.38,2.13,7.47,7.47,0,0,0,120,.2c0-.12,0-.2.06-.2s3.13,1.26,3.13,1.76c0,.23-.28.42-.92.54a1.59,1.59,0,0,0-.28.05c2.15,3,7.61,7.79,12.74,8.54.17,0,.25.06.25.11,0,.28-2.44.93-3,1.57a.44.44,0,0,1-.28.14c-.84,0-6.39-3.61-10.05-10Zm4.81,21.28,0-1.12h-10l0,1.26c0,.5-.56.86-1.15.86-.42,0-.78-.19-.78-.7v-.08c.25-2.74.25-4.73.25-6.16a25.14,25.14,0,0,0-.33-3.44.48.48,0,0,1,0-.17c0-.06,0-.09,0-.09A11.42,11.42,0,0,1,117,15.82l0,0h8.46a.46.46,0,0,0,.39-.17c.56-.64.76-.87,1-.87.37,0,2.13,1.29,2.13,1.71,0,.2-.2.34-.48.5-.5.28-.56.34-.56,2,0,1.35.12,3.17.23,4.9a1,1,0,0,1-1.09,1,.72.72,0,0,1-.79-.76Zm-5.6-12.44a28.71,28.71,0,0,0-4.17.26h0c-.28,0-1.06-1-1.06-1.35a36.9,36.9,0,0,0,5.32.39h2.38a.53.53,0,0,0,.33-.22c.28-.53,1.07-1.68,1.29-1.68.06,0,.11,0,.14,0,.67.31,2.27,1.68,2.27,2.18,0,.2-.11.39-.53.39Zm-3.72,4.85-.17.11c-.53.34-.45.25-.48,1.12,0,.5,0,1.09,0,1.71,0,.84,0,1.79,0,2.8h10c0-1.09,0-2.07,0-3s0-1.71-.06-2.41a.34.34,0,0,0-.36-.33ZM154.44,15c0,.48-.11,1.71-.11,2.52a23.34,23.34,0,0,0,.61,5,2.79,2.79,0,0,1,.11.81c0,.78-.33,1.17-.72,1.17s-1.07-.61-1.18-1.93a16.24,16.24,0,0,0-1.46-4,20,20,0,0,0-1.23,3c-.36,1.18-1.15,1.85-1.68,1.85-.28,0-.48-.19-.48-.64,0-1,1.6-3.75,2.78-5.43a16.17,16.17,0,0,0-1.63-2.5,2.09,2.09,0,0,1-.56-1.17c0-.28.17-.56.62-.76A4.26,4.26,0,0,0,151,11.76,16.84,16.84,0,0,1,154.35,9c0-.44.09-.86.09-1.26s0-1,0-1.34c0-1.37,0-2.69-1.65-3.67-.28-.19-.42-.28-.42-.39s.45-.42,1-.42c.08,0,2.35,0,2.35,2.88,0,.59-.36,3.25-.45,3.73h.09c1.2,0,1.59.31,1.59.75,0,.65-.75,1.54-1.28,2.36-.34.5-.73,1.14-1.15,1.82l-.06.5.28-.25c2.8-2.91,5.57-4,7.95-4,3,0,6.39,2.07,6.39,5.46,0,5.88-8.63,8.84-10.19,8.84-.09,0-.12,0-.12-.05s.34-.28,1-.53c1.73-.73,7.47-3.84,7.47-8.18,0-2.66-2.32-4.37-5.15-4.37-2.1,0-4.7,1-7.45,3.84Zm-.17-4.81a5.62,5.62,0,0,0-2.24,2.6,1.77,1.77,0,0,1-1.6,1.23c-.28.06-.33.14-.33.25a10.45,10.45,0,0,0,1.28,2.61c.12-.17.26-.34.4-.51A39.77,39.77,0,0,0,154,13C154.07,12,154.19,11,154.27,10.14ZM152.08,18c.82,1.51,1.07,1.73,1.18,1.73s.14-.05.14-.22v-.34a24.5,24.5,0,0,1,.25-3.27C153.09,16.58,152.59,17.28,152.08,18Zm3.17-7.31a1.36,1.36,0,0,0,.17-.59c0-.17-.06-.31-.25-.31h0c-.09.48-.2,1-.28,1.6Zm44.88,4.76c-.73,1.59-1.85,2.29-2.57,2.29a.72.72,0,0,1-.79-.7,4.76,4.76,0,0,0-1.51-2.63c-.25-.22-.34-.36-.34-.45s0-.08.11-.08a.87.87,0,0,1,.48.22,4.2,4.2,0,0,0,2.3,1.07c.78,0,1.48-.62,1.87-3.92a36.39,36.39,0,0,0-6.61,1.93,44.1,44.1,0,0,0,.42,5.12c.34,2.08,2.16,2.64,3.95,2.64a11.14,11.14,0,0,0,3.45-.59,3,3,0,0,1,1-.23c.76,0,1.29.42,1.29.87,0,1.18-3.39,1.57-5.1,1.57-3.1,0-5.46-1.2-5.88-4-.16-1.12-.3-3-.44-4.82a32.86,32.86,0,0,0-3.31,1.68,3.36,3.36,0,0,1-1.87.65c-.17,0-3.25-.26-3.25-2.22,0-.36.17-.5.33-.5a.74.74,0,0,1,.4.17,2.27,2.27,0,0,0,1.82.73,6.26,6.26,0,0,0,2.27-.51c1.09-.39,2.26-.81,3.52-1.2-.11-1.32-.22-2.49-.36-3.25-.23-1.12-1.4-1.74-1.4-2.18,0-.28.56-.51,1.12-.51s2,.42,2,2.8v.23c0,.75,0,1.62,0,2.52a61.5,61.5,0,0,1,6.72-1.82c0-.4,0-.82,0-1.21,0-1-.06-4-.85-4.31-.22-.08-.3-.2-.3-.28,0-.31.5-.62,1.12-.62a1.51,1.51,0,0,1,1.62,1.32c0,.5-.22,1.34-.28,3.16,0,.42-.05,1-.08,1.68,1-.19,1.9-.39,2.57-.5.28-.06.37-.17.37-.28a.33.33,0,0,0-.12-.25s-1.23-1.26-1.23-1.49a.13.13,0,0,1,.14-.11.68.68,0,0,1,.39.2A12,12,0,0,0,206.4,9.3c2,.64,2.36,1,2.36,1.54s-.4.7-1.07.7a3.29,3.29,0,0,1-.95-.17,11.89,11.89,0,0,0-3.5-.48A21.12,21.12,0,0,0,201,11,14.22,14.22,0,0,1,200.13,15.43ZM223.57,18c0-3,.93-5.49,1.46-7.84a13.79,13.79,0,0,0,.48-2.92,6.2,6.2,0,0,0-1.38-3.75c-.14-.19-.31-.36-.31-.45s.34-.14.37-.14c1,0,3.11,2.52,3.11,4.51,0,1-.53,1.88-1.1,3.33a16.87,16.87,0,0,0-1.51,5.74c0,.87.2,1.77.4,1.77s.19-.14.33-.48c.34-.81,2.47-5.43,2.94-5.43.06,0,.11,0,.11.14a1.25,1.25,0,0,1-.16.5,23.35,23.35,0,0,0-2.3,8,3.33,3.33,0,0,0,.22,1.32,1.91,1.91,0,0,1,.17.75c0,.56-.31.9-.7.9C224.41,24,223.57,20.8,223.57,18ZM238.19,6.86c0-2.77-.17-2.8-.87-3-.42-.11-.64-.19-.64-.39a1.42,1.42,0,0,1,1.17-.87,2.68,2.68,0,0,1,2,2.08,3.74,3.74,0,0,1-.06.53c.51.19,1.57.64,1.94.75,1.06.28,1.45.48,1.45,1.1,0,1.48-2.88,2.32-3.78,2.57v1.23c0,2.16.09,4.09.17,5.35,0,.65.09,1.35.09,2,2.07.61,4.36,2.27,4.36,3.47,0,.56-.33,1.06-.78,1.06-.28,0-.62-.22-.95-.75a7,7,0,0,0-2.72-2.49,4.64,4.64,0,0,1-4.42,4c-2,0-3.75-1.46-3.75-2.94,0-1.65,2.29-2.86,5.06-2.86a10.36,10.36,0,0,1,1.82.17v-1.4c0-1.23-.05-3.92-.08-6.61a6.2,6.2,0,0,1-1.37.14c-3.34,0-4.57-2.29-4.57-2.6,0-.06,0-.09.11-.09a2.45,2.45,0,0,1,.65.17c.53.2,1.48.65,2,.81a6.75,6.75,0,0,0,1.93.28,10.15,10.15,0,0,0,1.21-.11ZM235.67,18.7c-2,0-3.42,1-3.42,1.88,0,1.12,1.46,1.46,2.41,1.46a3.48,3.48,0,0,0,3.47-3A9.47,9.47,0,0,0,235.67,18.7Zm3.78-10.47c2-.53,2-1.15,2-1.37,0-.45-.48-.73-1.71-1.46A24.57,24.57,0,0,0,239.45,8.23ZM268.53,23c-4.42,0-8-2-8-4.48A3.37,3.37,0,0,1,262,15.79c.09,0,.11.09.11.2a1.24,1.24,0,0,1-.19.56,2.29,2.29,0,0,0-.45,1.29c0,1.9,3.14,3.19,6.38,3.19a11.5,11.5,0,0,0,2.38-.25c1.26-.28,1.88-.68,2.61-.82.22,0,.45-.05.64-.05.87,0,1.43.36,1.43.87C274.86,21.87,272.06,23,268.53,23Zm3.11-16.07a10.36,10.36,0,0,0-5,2.24,1.48,1.48,0,0,1-.7.36c-.08,0-.11,0-.11-.11a1,1,0,0,1,.28-.5,16.09,16.09,0,0,0,1.59-2.08c0-.14-.14-.19-.42-.19s-.84,0-1.26-.06c-2.85-.25-3.89-2-3.89-2.18s.06-.09.14-.09a3.61,3.61,0,0,1,.87.26,10.59,10.59,0,0,0,3.67.5c.87,0,1.73,0,2.63-.06.45,0,.81-.08,1.26-.08,1.29,0,2.18.7,2.18,1.26C272.84,6.52,272.48,6.86,271.64,6.89Zm32,6.1c1.54,0,4.73,1.12,4.73,4.12a5.64,5.64,0,0,1-1,3.08c-2.43,3.61-8.9,4.09-9.85,4.09-.2,0-.31,0-.31-.06s.42-.25,1.37-.5c7.56-2,8-5.66,8-6.58a3.2,3.2,0,0,0-3.36-3c-2.63,0-4.76,3.14-5.09,4-.26.65-.59,1-1,1s-1.32-.7-1.32-2.54a14.66,14.66,0,0,1,.31-2.78c.25-1.23.64-3.5.89-5.6a3.81,3.81,0,0,1-1.42.28A3.43,3.43,0,0,1,292.25,6c0-.11.06-.14.14-.14a1.29,1.29,0,0,1,.56.2,5.25,5.25,0,0,0,2.5.84A6.14,6.14,0,0,0,297,6.66a.24.24,0,0,0,.14,0c0-.62.09-1.18.09-1.65,0-2.1-.39-2.44-.87-2.44h-.17c-.17,0-.25-.06-.25-.17a1.33,1.33,0,0,1,1.34-1,1.67,1.67,0,0,1,1.57,1.77c0,.36-.28,2.1-.45,2.94.9-.45,1.82-1,2.27-1.29a1.52,1.52,0,0,1,.73-.2c.39,0,.7.2.7.51,0,1-2.91,2.32-4,2.77a52.69,52.69,0,0,0-.93,6.83c0,.64.09.81.34.81a9.07,9.07,0,0,0,2.57-1.29A6.74,6.74,0,0,1,303.68,13Zm24.53-3.92a4.86,4.86,0,0,0,0-.67,3.32,3.32,0,0,1,0-.53c0-2.21,1.93-3.08,3.58-4,.23-.14.7-.45.7-.82,0,0,0-.08,0-.11-.17-.61-.59-.92-.68-1.23s-.19-.39-.19-.5,0-.06.11-.06c.31,0,3.81,1.57,3.81,3.36a1.18,1.18,0,0,1-1,1.23,3.94,3.94,0,0,1-1-.25,6.28,6.28,0,0,0-1.94-.28,1.85,1.85,0,0,0-2.1,1.93,2.22,2.22,0,0,0,.12.79,4.36,4.36,0,0,1,.22,1.31,15,15,0,0,1-.45,2.49,20.7,20.7,0,0,0-.39,3.45c0,2.07.62,2.38,1,2.38a2.07,2.07,0,0,0,.95-.42c.67-.45,1.46-1.26,2.77-2.13a5.61,5.61,0,0,1,3-.92c2.27,0,4.51,1.76,4.51,4,0,4.34-5.83,6.94-10.39,6.94-.2,0-.31,0-.31-.05s.37-.2,1.21-.39c5.23-1.26,7.67-4.29,7.67-6.47a3.15,3.15,0,0,0-3.22-3,3.12,3.12,0,0,0-2,.68,14.3,14.3,0,0,0-2.91,3.41c-.45.59-.82.84-1.21.84-.75,0-2.38-1-2.38-4.17a41.91,41.91,0,0,1,.51-5A11.48,11.48,0,0,0,328.21,9.07Z"/></g></g></svg>