<svg xmlns="http://www.w3.org/2000/svg" viewBox="0 0 27.44 324.58"><defs><style>.cls-1{fill:#333434;}</style></defs><g id="レイヤー_2" data-name="レイヤー 2"><g id="レイヤー_1-2" data-name="レイヤー 1"><path class="cls-1" d="M14.7,12c2.69,3.64,7.67,8.23,12.38,9.3.16,0,.25.08.25.11,0,.22-2.61.48-3.33,1.29a.41.41,0,0,1-.31.17c-.67,0-6.05-4.26-9.21-10.22,0,3.92.11,8.23.19,11.53,0,.84-.84,1.07-1.26,1.07a.77.77,0,0,1-.84-.84V24.3c.17-2.57.28-6.24.31-9.85C8.23,20.5,1.54,23.3.17,23.3c-.09,0-.11,0-.11,0s.19-.2.58-.37c3-1.4,8.1-5.34,11.79-10.89H10.86c-1.56,0-5.15.06-7.64.31h0c-.5,0-1.31-1.09-1.31-1.46,2.88.34,7.47.45,9.1.45h1.93c0-1.62,0-3.13,0-4.45-1.6,0-4.54.06-7,.31h0c-.5,0-1.26-1.09-1.26-1.46a79.38,79.38,0,0,0,8.26.45c0-.5,0-1,0-1.4A27.71,27.71,0,0,0,12.54.22a.72.72,0,0,1,0-.19s0,0,0,0c.62,0,3.34.48,3.34,1.06,0,.2-.23.42-.59.65-.65.36-.56.31-.65,1.17-.08.68-.11,1.82-.14,3.28h3.17a.58.58,0,0,0,.45-.25c.19-.31,1.14-1.71,1.56-1.71a.32.32,0,0,1,.17,0,5.45,5.45,0,0,1,2.47,2.29c0,.17-.14.34-.62.34H14.48v4.45h6a.58.58,0,0,0,.48-.25A7,7,0,0,1,22.46,9.3c.11,0,.25.11.33.14.93.33,2.52,1.73,2.52,2.24,0,.16-.14.33-.61.33Zm-.06,34.47c2.66,3.67,7.87,7.48,12.55,8.43.17,0,.25.08.25.11,0,.22-2.58.53-3.28,1.37a.54.54,0,0,1-.33.2c-.65,0-6.3-4.15-9.33-9.44,0,3.59.12,7.39.17,10.36,0,.84-.84,1.07-1.26,1.07a.77.77,0,0,1-.84-.84v-.12c.17-2.29.25-5.48.31-8.7C7.92,55.1.84,57.2.08,57.2c0,0-.08,0-.08,0s.2-.17.59-.37A30.88,30.88,0,0,0,12.35,46.48H10.72c-1.56,0-5.18.06-7.67.31H3c-.53,0-1.4-1.09-1.4-1.46,2.89.34,7.59.45,9.22.45h2.07c0-2.35,0-4.56,0-6.3h-.7c-1.57,0-4.7.06-7.2.31H5c-.51,0-1.32-1.09-1.32-1.46,2.88.34,7,.45,8.65.45h.59l0-.7a27.71,27.71,0,0,0-.31-4.54.72.72,0,0,1,0-.19s0,0,0,0c.62,0,3.34.48,3.34,1.06,0,.2-.23.42-.59.65-.65.36-.56.31-.65,1.17-.05.56-.11,1.46-.14,2.58h4.09a.56.56,0,0,0,.45-.25c.2-.31,1.15-1.71,1.57-1.71a.36.36,0,0,1,.17,0,5.47,5.47,0,0,1,2.46,2.29c0,.17-.14.34-.62.34H14.5c0,1.26,0,2.72,0,4.28v2h1.17l.11-.14a34.63,34.63,0,0,0,2.44-3.75,6.79,6.79,0,0,0,.56-1.46c.06-.19.06-.25.08-.25s2.5,1.46,2.5,2c0,.17-.17.31-.59.31a1.16,1.16,0,0,1-.31,0h-.17c-.25,0-.28.11-.53.33-.73.65-2.13,1.94-3.44,2.89l-.14.11h4.59a.57.57,0,0,0,.47-.25c.26-.39,1.18-1.79,1.63-1.79a.52.52,0,0,1,.17,0c.84.31,2.52,1.85,2.52,2.38,0,.17-.14.34-.62.34Zm-6.21-2.6a9.2,9.2,0,0,0-1.85-2.55c-.2-.17-.28-.28-.28-.31s.06-.06.14-.06c1.74,0,4.12,1.15,4.12,2.66a1.12,1.12,0,0,1-1,1.21A1.31,1.31,0,0,1,8.43,43.88ZM13.19,83.1C10.78,84.56,9.8,86,9.8,87.19c0,.93.9,2.49,3.61,2.49a7.32,7.32,0,0,0,3.31-.78,1.65,1.65,0,0,1,.84-.22.9.9,0,0,1,1,.81c0,1.06-2.24,1.85-4.36,1.85-3.22,0-5.41-2-5.41-3.87s1.82-3.81,4.4-5.32c0-1.34-.14-4.17-1.88-4.17-.75,0-1.73.62-2.85,2.21-.2.34-.4.76-.62,1.18-.42.78-1.2,2.13-2,2.13-.2,0-.73-.17-.73-.93a3,3,0,0,1,1.09-2,17.12,17.12,0,0,0,4.68-6.69c.06-.11.08-.22.14-.33l-.2,0a5.24,5.24,0,0,1-1.51.23c-2.85,0-3.44-2-3.44-2.47,0-.05,0-.11.08-.11a2.32,2.32,0,0,1,.65.36,4.05,4.05,0,0,0,2.43.79A8.37,8.37,0,0,0,11.54,72a3.91,3.91,0,0,0,.08-.9c0-1-.28-1.54-1.12-1.73-.17-.06-.39-.12-.39-.26s.75-.56,1.17-.56a1.53,1.53,0,0,1,1.6,1.4,1.55,1.55,0,0,1,.34,0,4.36,4.36,0,0,0,.61,0,3.76,3.76,0,0,0,.81-.08.86.86,0,0,1,.34-.09.63.63,0,0,1,.59.7c0,1.09-1.54,2-3.36,2.66l-.11.23a46.37,46.37,0,0,1-2.27,4.39,3.39,3.39,0,0,1,1.65-.47c1.43,0,2.49,1.23,2.86,2.91,1.2-3,3.5-6,6.24-6,1.48,0,3.42,1.12,3.42,2.44,0,1.09-1.26,2.18-3.08,2.91s-4.4,1.74-6.3,2.69c.05.56.08,1.12.08,1.71,0,.42,0,.87-.06,1.29-.08,1-.75,1.68-1.26,1.68s-.64-.31-.64-1.1c0-.11,0-.22,0-.36a15,15,0,0,0,.39-1.93Zm-.28-13v.22a5.56,5.56,0,0,1-.14,1.15c.61-.25,1.06-.61,1.06-.87s-.64-.42-.67-.42A.81.81,0,0,1,12.91,70.14ZM14.5,81.42c1.66-.86,3.95-2,5.6-2.82,1.21-.65,2-1.32,2-2a1.68,1.68,0,0,0-1.76-1.48c-2.66,0-5.1,4.14-5.8,6.27ZM8.79,106.26v2.1c1.54.14,4.54.5,4.54,2.38a.88.88,0,0,1-.79,1,1.4,1.4,0,0,1-1.06-.73,9.14,9.14,0,0,0-2.69-2.38c0,2.58.06,5.35.14,7.09a1,1,0,0,1-1.06,1,.69.69,0,0,1-.73-.76v-.11c.11-1.65.2-4.26.22-6.72-2.4,3.3-6,5.21-6.77,5.21-.09,0-.14,0-.14-.06s.14-.19.42-.36c1.82-1.07,5.77-5.43,6.49-7.59a39,39,0,0,0-4.48.25h0c-.34,0-1.12-1-1.12-1.34a48.37,48.37,0,0,0,5.65.39,31.24,31.24,0,0,0-.31-4.9.66.66,0,0,1,0-.17s0,0,.08,0a10.72,10.72,0,0,1,2.44.56c.36.11.53.28.53.44s-.2.4-.48.54c-.61.3-.7.11-.75,1.06-.06.59-.09,1.48-.09,2.52h1.29a.5.5,0,0,0,.34-.22c.05-.09.84-1.4,1.17-1.4.48,0,2.13,1.42,2.13,2,0,.17-.14.31-.53.31ZM6.27,118.44s.06.14.06.31V119c0,2.47-1.82,5.13-3.61,5.13a1,1,0,0,1-1-1A1.59,1.59,0,0,1,3,121.72a5,5,0,0,0,3.13-3.06C6.19,118.52,6.22,118.44,6.27,118.44Zm10.31,6.22c-1,0-2.08.11-3,.11-3.5,0-4.79-.7-4.79-2v-.11c0-.7.11-2.07.11-2.63a13,13,0,0,0-.14-1.93.62.62,0,0,1,0-.2s0,0,.12,0,2.77.22,2.77.84c0,.14-.2.33-.53.5-.56.28-.65.34-.65,3,0,.81.2,1.09,3.75,1.09,3.34,0,4-.37,4.57-3.5,0-.23.08-.31.11-.31s.36,2.18.9,2.52a1,1,0,0,1,.61.87C20.41,123.59,19.1,124.49,16.58,124.66Zm-2.33-5.27a8.65,8.65,0,0,0-2-2.32c-.2-.17-.31-.25-.31-.28s0,0,.11,0c.42,0,4.17.25,4.17,2.3a1,1,0,0,1-.92,1.12A1.21,1.21,0,0,1,14.25,119.39Zm7.87-4.9H16.21v1.12a1,1,0,0,1-1.06.9.65.65,0,0,1-.7-.73v-.08c.17-2.75.19-7,.19-9.22a26.71,26.71,0,0,0-.33-4.87c0-.08,0-.11,0-.17s0,0,.06,0a13.28,13.28,0,0,1,2.52,1.12l0,0h4.65a.43.43,0,0,0,.37-.2c.3-.45.61-.73.81-.73s2.13.81,2.13,1.51c0,.28-.34.48-.62.65-.56.31-.56.36-.56,2.35,0,2.52.11,6.94.22,9.1v.06a1,1,0,0,1-1,1,.73.73,0,0,1-.73-.81Zm-5.35-11.2a1.8,1.8,0,0,1-.25.17c-.25.14-.31.11-.31.81,0,.42,0,1.15,0,2h6c0-1.21,0-2.16-.06-2.69,0-.08-.11-.31-.28-.31ZM22.18,107h-6v2.74h6Zm-6,3.47v3.27h6c0-1,0-2.15,0-3.27Zm7.34,12a11,11,0,0,0-3.28-3.55c-.11-.09-.16-.14-.16-.2s.05,0,.14,0c.67,0,5.48,1.31,5.48,3.58a1.1,1.1,0,0,1-1,1.2C24.33,123.42,23.88,123.14,23.52,122.44ZM5.12,141.68C2.32,144.9.31,146,.2,146a.06.06,0,0,1-.06-.05.77.77,0,0,1,.25-.37A35.79,35.79,0,0,0,7.08,136a9.76,9.76,0,0,0,.62-2c0-.14,0-.2.11-.2s2.69,1.2,2.69,1.76c0,.23-.22.4-.87.51-.42.08-.47.14-.81.64-.73,1.09-1.48,2.16-2.27,3.17.37.05,1.4.25,1.4.58,0,.17-.22.34-.59.51-.58.28-.61.28-.64,1.17-.08,2.3-.14,5.55-.14,8.82,0,2.22,0,4.43.08,6.36a1.18,1.18,0,0,1-1.23,1.18c-.45,0-.84-.28-.84-1v-.14c.34-3.92.53-9.68.53-13.3v-2.46Zm17.11,2.24v-.11H18.7a44.81,44.81,0,0,0,1.82,4.87c.45-.28,2.86-1.85,3.31-3.22,0-.08.05-.14.11-.14.34,0,2.16,1.57,2.16,2.13,0,.19-.17.31-.54.31a2.84,2.84,0,0,1-.44-.06,1.84,1.84,0,0,0-.4-.06,1,1,0,0,0-.39.09c-.5.22-2,.89-3.55,1.45A12.18,12.18,0,0,0,27,155.37c.17.09.26.14.26.2,0,.33-2.13.45-2.75.89a.46.46,0,0,1-.31.14c-.16,0-3.83-2.4-5.85-12.79h-.45a.25.25,0,0,1,.06.14c0,.11-.14.25-.36.28s-.37.08-.84.5a13.5,13.5,0,0,1-1.85,1.4c2.43,1.07,4.31,4.34,4.31,7.2s-1.71,5.09-4.28,5.09c-.34,0-.34-.14-.48-.33-.7-1-2.63-2-2.63-2.13a0,0,0,0,1,0,0,1.36,1.36,0,0,1,.33.09,10.55,10.55,0,0,0,2.69.47c.78,0,2.86-.14,2.86-3.47a7.85,7.85,0,0,0-.17-1.57c-.06,0-.09,0-.14,0-.37.06-.31.17-.59.45-3.39,3.41-8.37,5.18-9.55,5.18-.14,0-.22,0-.22-.06s.19-.17.7-.33c3-1,7.39-4.68,8.06-6.28.09-.19.09-.25.11-.25a8.46,8.46,0,0,1,1.46.51,9.83,9.83,0,0,0-.84-2,.86.86,0,0,1-.39.14c-.39.09-.31,0-.76.34-2.66,2.1-6.94,3.89-8.23,3.89C7,153,7,153,7,153s.2-.19.7-.36c2.63-1,6.16-3.61,6.86-4.84.09-.14.09-.23.2-.23a5.37,5.37,0,0,1,1.48.62,5.51,5.51,0,0,0-1.76-1.77c-1.68,1-5.18,2.72-6.81,2.72,0,0-.11,0-.11,0s.2-.17.7-.36a20.18,20.18,0,0,0,7.28-4.9H12v.33c0,.51-.56.79-1,.79a.61.61,0,0,1-.67-.62v-.08c.06-.9.17-2,.2-3.28v-.56a9.61,9.61,0,0,1-3.25,2.21s-.06,0-.06,0,.17-.23.56-.54c1.91-1.42,5.91-6.32,6.39-8.59.05-.23,0-.28.08-.28s2.47.87,2.47,1.34c0,.17-.28.28-.76.31s-.36.08-1.15,1.12h2.75a.53.53,0,0,0,.44-.22c.23-.23.54-.54.68-.54s1.93,1,1.93,1.6c0,.28-.37.42-.59.5a2.62,2.62,0,0,0-1,.51c-.39.31-1.06.89-1.82,1.51H21.7a.42.42,0,0,0,.34-.2,2.22,2.22,0,0,1,.47-.53c.09,0,.14-.08.23-.08s1.87.75,1.87,1.37c0,.25-.28.39-.5.53-.45.28-.45.31-.45.93s.11,1.68.17,2.4a.85.85,0,0,1-.95.9.61.61,0,0,1-.65-.67ZM12.46,140a1.15,1.15,0,0,1-.2.14c-.33.22-.36.28-.36,1.74,0,.42,0,.84,0,1.26h4.14c0-.59.06-1.26.06-2.1,0-.23,0-.7,0-1Zm1.74-3.33c-.7.81-1.46,1.62-2.22,2.35a2.69,2.69,0,0,1,.51.25l0,0h4a13.63,13.63,0,0,0,1.23-2.52c0-.08,0-.11-.19-.11ZM18.06,140a.1.1,0,0,0,0,.06c0,.08-.09.19-.25.3-.37.23-.37.23-.37,1.63,0,.39,0,.78,0,1.15h4.76c0-.51,0-1,0-1.38,0-.58,0-1.09-.06-1.48a.33.33,0,0,0-.31-.28Zm-4.42,45.44a1.67,1.67,0,0,1-.37,0,1.58,1.58,0,0,1-1.34-.73,5.75,5.75,0,0,1-1.15-3.33,2.45,2.45,0,0,1,2.55-2.66,3.34,3.34,0,0,1,1.45.34c0-1.12,0-2.66,0-4.37a25.67,25.67,0,0,0-7.2,1.74,5.06,5.06,0,0,1-1.9.39c-1.51,0-3.11-.95-3.11-2.19,0-.28.11-.39.28-.39a1,1,0,0,1,.59.34,2.92,2.92,0,0,0,1.71.33,10.59,10.59,0,0,0,1.37-.08c2.83-.36,5.51-.78,8.26-1.06,0-.9,0-1.85,0-2.8a1.92,1.92,0,0,0-1.09-2c-.17-.11-.23-.17-.23-.28s.31-.59,1.12-.59a1.92,1.92,0,0,1,2,2.1,7.34,7.34,0,0,1-.11,1c-.17.87-.28,1.71-.37,2.49,1.15-.08,2.3-.16,3.5-.19.31,0,.45-.09.45-.17s0-.08-.11-.11a18.89,18.89,0,0,1-2.3-1.79s0,0,.09,0a2,2,0,0,1,.78.28,14.52,14.52,0,0,0,3.75,1.4c2.94.42,3.17,1.45,3.17,1.79s-.34.73-.93.73a2.53,2.53,0,0,1-.72-.11,22.07,22.07,0,0,0-6.36-.87c-.45,0-.92,0-1.4,0-.06.89-.08,1.73-.08,2.49,0,1.15,0,2.13.08,2.8a3.81,3.81,0,0,1,1,2.91c0,5.29-5.74,8.79-7.7,8.79-.14,0-.2,0-.2-.08s.22-.28.73-.48a10.62,10.62,0,0,0,5.23-6.55A2.6,2.6,0,0,1,13.64,185.44Zm-.7-6A1.34,1.34,0,0,0,11.62,181c0,.42.31,2.72,2,2.72,1.12,0,1.31-1.23,1.31-2a4,4,0,0,0-.08-.84A2.13,2.13,0,0,0,12.94,179.45Zm2.15,42.9c3.42-.7,4.79-3,4.79-5A4.34,4.34,0,0,0,15.32,213c-2,0-4.37.84-6.16,4-.26.45-.7,1.46-.9,1.74a1.55,1.55,0,0,1-1.2.78.79.79,0,0,1-.79-.84c0-.45.25-1,2.3-3.44,1.12-1.32,6.27-8.4,6.75-9.16a1.73,1.73,0,0,0,.28-.7c0-.14-.06-.5-.73-.5-1.35,0-2.07,2.57-3.89,2.57a1.6,1.6,0,0,1-1.77-1.59c0-.23,0-.45.23-.45a1.74,1.74,0,0,1,.53.17,2.27,2.27,0,0,0,.73.11,1.75,1.75,0,0,0,1.14-.39,6.79,6.79,0,0,1,3.84-1.71c1.32,0,2.44,1,2.44,1.65s-.51,1-1.1,1.43c-2.26,1.71-5.79,6.63-5.79,6.72h0s.05,0,.14-.06A8.49,8.49,0,0,1,15.85,212a5.39,5.39,0,0,1,5.79,5.21c0,3.17-2.94,6.3-7.72,6.3-2,0-4.4-1.06-4.4-2.83,0-1.26,1.29-2.07,2.63-2.07a2.93,2.93,0,0,1,3,2.83,2.61,2.61,0,0,1-.17.9Zm-1.45-.87a1.87,1.87,0,0,0-1.82-1.9c-1.18,0-1.32.81-1.32,1.12,0,1,1.54,1.65,2.91,1.76A2.07,2.07,0,0,0,13.64,221.48Zm6,35.92,0-1.4H7.87v1.35a1.18,1.18,0,0,1-1.23,1.06.78.78,0,0,1-.82-.87v-.08c.2-3.16.26-6.58.26-9.86,0-3.47,0-8.45-.45-10.47a.69.69,0,0,1,0-.19c0-.06,0-.09,0-.09a11.2,11.2,0,0,1,2.94,1.32l.11.08h2.6a14.87,14.87,0,0,0,.73-3.92,8.64,8.64,0,0,0,0-.92v-.06c0-.08,0-.11.09-.11.22,0,3.36,1,3.36,1.6,0,.22-.31.42-.95.47-.34,0-.42.2-.56.39-.45.59-1.18,1.8-1.74,2.55h6.69a.61.61,0,0,0,.45-.25c.2-.28.78-.92,1-.92s2.49,1.26,2.49,1.93c0,.31-.34.53-.81.75s-.59.34-.59,4c0,3.84.14,9.88.25,13.36.06,1.06-1.09,1.17-1.23,1.17a.78.78,0,0,1-.84-.84Zm.08-13H7.84c0,1.37,0,3,0,4.65h11.9Zm-11.9,5.4c0,1.8,0,3.64,0,5.41H19.66c0-1.79.05-3.61.05-5.41ZM8.57,239a1.52,1.52,0,0,1-.23.16c-.47.31-.5.45-.5,1.21v3.27H19.71c0-1.7,0-3.19-.08-4.25a.37.37,0,0,0-.37-.39Zm12.85,51.35,0-1.4H6.19l0,1.34A1.17,1.17,0,0,1,5,291.4a.77.77,0,0,1-.81-.87v-.09c.2-3.16.25-5.68.25-8.26A75.13,75.13,0,0,0,4,272.5a1.09,1.09,0,0,1,0-.2c0-.06,0-.08,0-.08a10.6,10.6,0,0,1,2.92,1.31s.08.06.11.09h5.85c0-.87,0-1.57,0-2a25.87,25.87,0,0,0-.33-4.54c0-.11-.06-.16-.06-.19s0,0,.06,0,3.55.42,3.55,1.06c0,.2-.25.42-.64.65-.7.36-.59.31-.7,1.17-.06.54-.09,2-.11,3.9h6a.62.62,0,0,0,.45-.26c.2-.28.79-.92,1-.92s2.49,1.26,2.49,1.93c0,.31-.34.53-.81.76s-.59.33-.59,3.55.14,7.93.25,11.4c.06,1.06-1.09,1.18-1.23,1.18a.78.78,0,0,1-.84-.84Zm-14.5-16a1.53,1.53,0,0,1-.23.17c-.47.31-.5.45-.5,1.2,0,1.07,0,2.75,0,4.79h6.75c0-2.21,0-4.42,0-6.16Zm5.93,13.83c0-1.54.06-4.17.06-6.91H6.16c0,2.07,0,4.42,0,6.91Zm1.77-13.83c0,1.85,0,4,0,6.16H21.5c0-2.24,0-4.2-.08-5.77a.38.38,0,0,0-.36-.39Zm6.83,13.83c0-2.49.05-4.81.05-6.91H14.59c0,2.74,0,5.32,0,6.91Zm-8.26,28.11c-2.41,1.46-3.39,2.92-3.39,4.09,0,.93.9,2.49,3.61,2.49a7.32,7.32,0,0,0,3.31-.78,1.65,1.65,0,0,1,.84-.22.9.9,0,0,1,1,.81c0,1.06-2.24,1.85-4.36,1.85-3.22,0-5.41-2-5.41-3.87s1.82-3.81,4.4-5.32c0-1.34-.14-4.17-1.88-4.17-.75,0-1.73.62-2.85,2.21-.2.34-.4.76-.62,1.18-.42.78-1.2,2.13-2,2.13-.2,0-.73-.17-.73-.93a3,3,0,0,1,1.09-2,17.12,17.12,0,0,0,4.68-6.69c.06-.11.08-.22.14-.33l-.2.05a5.24,5.24,0,0,1-1.51.23c-2.85,0-3.44-2-3.44-2.47,0-.05,0-.11.08-.11a2.32,2.32,0,0,1,.65.36,4.05,4.05,0,0,0,2.43.79,8.37,8.37,0,0,0,2.47-.42,3.91,3.91,0,0,0,.08-.9c0-1-.28-1.54-1.12-1.73-.17-.06-.39-.12-.39-.26s.75-.56,1.17-.56a1.53,1.53,0,0,1,1.6,1.4,1.55,1.55,0,0,1,.34,0,4.36,4.36,0,0,0,.61,0,3.76,3.76,0,0,0,.81-.08.86.86,0,0,1,.34-.09.63.63,0,0,1,.59.7c0,1.09-1.54,2-3.36,2.66l-.11.23a46.37,46.37,0,0,1-2.27,4.39,3.39,3.39,0,0,1,1.65-.47c1.43,0,2.49,1.23,2.86,2.91,1.2-3,3.5-6,6.24-6,1.48,0,3.42,1.12,3.42,2.44,0,1.09-1.26,2.18-3.08,2.91s-4.4,1.74-6.3,2.69c.05.56.08,1.12.08,1.71,0,.42,0,.87-.06,1.29-.08.95-.75,1.68-1.26,1.68s-.64-.31-.64-1.1c0-.11,0-.22,0-.36a15,15,0,0,0,.39-1.93Zm-.28-13v.22a5.56,5.56,0,0,1-.14,1.15c.61-.25,1.06-.61,1.06-.87s-.64-.42-.67-.42A.81.81,0,0,1,12.91,303.38Zm1.59,11.28c1.66-.86,3.95-2,5.6-2.82,1.21-.65,2-1.32,2-2a1.68,1.68,0,0,0-1.76-1.48c-2.66,0-5.1,4.14-5.8,6.27Z"/></g></g></svg>