<svg xmlns="http://www.w3.org/2000/svg" viewBox="0 0 26.88 358.48"><defs><style>.profile-1{fill:#333434;}</style></defs><g id="レイヤー_2" data-name="レイヤー 2"><g id="レイヤー_1-2" data-name="レイヤー 1"><path class="profile-1" d="M13.69,3.61c-.22,15.88-11.53,19.8-12.07,19.8-.05,0-.08,0-.08-.06s.28-.36.64-.56c6.58-3.64,9.55-12.23,9.55-19.29V3.39A19.82,19.82,0,0,0,11.48.2a.31.31,0,0,1,0-.14A.06.06,0,0,1,11.51,0c.33,0,3.61.5,3.61,1.29,0,.17-.14.33-.42.5v.56c0,7.31,4.14,16.83,12,19.24.16.05.22.08.22.14,0,.22-2.72.28-3.47,1.06a.44.44,0,0,1-.31.14c-.64,0-8.88-6.1-8.88-19.21,0-.56,0-1.12.06-1.7C13.83,2.21,13.72,2.24,13.69,3.61Zm-2,38.31a33.42,33.42,0,0,1,.42-4.06,17.21,17.21,0,0,0,.16-1.8c0-1.06-.33-1.45-1.45-1.68-.25-.05-.39-.16-.39-.3a1.07,1.07,0,0,1,1.14-.79A3,3,0,0,1,14.17,36a8.47,8.47,0,0,1-.34,1.71,23.1,23.1,0,0,0-.75,4.56c0,1.43.44,2.63,1.9,3a6.31,6.31,0,0,1,2.44-.67c1.12,0,1.2.67,1.2.87,0,1.06-1.4,1.4-2.21,1.4l-.37,0h-.28c-2.32,0-6,2.16-6,4.76,0,1.74,1.46,3.22,4.4,3.22A8.63,8.63,0,0,0,18,54a2.19,2.19,0,0,1,.87-.22,1,1,0,0,1,1.14,1c0,1.34-3,2-5,2-4.81,0-6.35-3-6.35-4.79,0-2.32,2.07-4.76,5-6.08C12.1,45.19,11.68,43.62,11.68,41.92Zm2.71,32.67C14.39,80.72,9.49,87,7.08,87c-1.37,0-1.87-1.88-3-3.53a4.35,4.35,0,0,1-.67-2.55c0-4.25,3.72-11,11.28-11,6.36,0,9.63,4.39,9.63,9,0,8.51-9.74,10.92-12,10.92-.25,0-.39-.06-.39-.11s.45-.37,1.26-.59c7.37-2,9.35-6.86,9.35-10.33,0-4.15-2.85-7.93-8.17-7.93-.34,0-.67,0-1,.06C14,71.37,14.39,72.8,14.39,74.59Zm-1-1c0-2-.47-2.49-1.09-2.49a1,1,0,0,0-.28,0,.64.64,0,0,1-.22,0,9.88,9.88,0,0,0-7,9.1c0,2.46,1.23,4.34,2.57,4.34C9.24,84.59,13.41,78.74,13.41,73.58ZM10,108.5H4.9v2.94c0,4.7.06,9.8.11,12.15a1.17,1.17,0,0,1-1.2,1.09.81.81,0,0,1-.84-.89v-.09c.25-4.22.36-10.75.36-16,0-1.46,0-2.8,0-4a25.71,25.71,0,0,0-.3-3.53A.54.54,0,0,1,3,100c0-.09,0-.11.08-.11A11.87,11.87,0,0,1,5.66,101s.08.06.14.12H9.44a.49.49,0,0,0,.39-.23c.14-.22.56-.64.75-.64s2.16,1.06,2.16,1.54c0,.25-.34.42-.59.59-.47.3-.5.5-.5,1.14v.37c0,1.34.11,3.67.17,4.7a1.06,1.06,0,0,1-1.07,1.07.69.69,0,0,1-.73-.76v-.42ZM5,105.08c0,.82,0,1.71,0,2.69h5.12c0-.78,0-1.73,0-2.69Zm.56-3.19c-.48.23-.56.37-.56,2.47h5.12c0-.82,0-1.6-.06-2.16a.3.3,0,0,0-.3-.31ZM14,117.49a6.4,6.4,0,0,1-.19.81h.05c1.54.2,5,1.12,5,2.83A.81.81,0,0,1,18,122c-.31,0-.64-.19-1-.7a12,12,0,0,0-3.33-2.82c-1.2,3.52-4.9,4.5-7.08,4.5-.31,0-.45,0-.45-.11s.28-.19.61-.25a6.62,6.62,0,0,0,5.6-5.18h-.25c-1.26,0-2.43.17-3.72.28h0c-.42,0-1.23-1-1.23-1.34a40.89,40.89,0,0,0,5.09.42h.26c0-.26,0-.54,0-.82v-.53a10.31,10.31,0,0,0,0-1.12c-1.09,0-2.61.14-3.5.23H9c-.34,0-1.06-.87-1.06-1.24a49.65,49.65,0,0,0,5.32.34h.39a15.44,15.44,0,0,0,1.76-3.75c0-.17,0-.23.09-.23s2.12,1.1,2.12,1.57c0,.17-.16.34-.56.34H16.8a.75.75,0,0,0-.56.25c-.45.39-1.34,1.23-2,1.82h2.29c.14,0,.2-.11.28-.25a5.39,5.39,0,0,1,.84-1.07.34.34,0,0,1,.2-.08.21.21,0,0,1,.14,0c1.73.92,1.82,1.54,1.82,1.71s-.11.3-.51.3l-4.76,0c.12.06.17.11.17.2s-.14.3-.36.42-.23,0-.23.73v.5c0,.2,0,.42,0,.62h2.85c.14,0,.25-.12.34-.26a6.78,6.78,0,0,1,.89-1.17c0-.06.12-.06.17-.06a.4.4,0,0,1,.2,0c.78.34,2,1.2,2,1.79,0,.17-.14.34-.54.34Zm-2.8-5.1a7.49,7.49,0,0,0-1.71-1.87c-.14-.12-.19-.17-.19-.23s.11-.08.33-.08h.09c1.4,0,3.16.75,3.16,1.9A.88.88,0,0,1,12,113,1,1,0,0,1,11.17,112.39Zm5.66-3.89v.11a1,1,0,0,1-1.07,1,.74.74,0,0,1-.78-.78v-.11c.17-1.85.2-3,.2-3.87a24.58,24.58,0,0,0-.31-4.56.59.59,0,0,1,0-.2c0-.08,0-.11.06-.11A9.48,9.48,0,0,1,17.42,101s.08.06.14.12h4a.48.48,0,0,0,.39-.23c.14-.22.56-.64.76-.64s2.29,1,2.29,1.54c0,.25-.33.42-.59.59-.56.33-.56.36-.56,3.75,0,3.95.12,10.19.17,12.51,0,.45.09,2.22.09,2.61,0,2.85-3,3.22-3.36,3.22s-.37-.17-.54-.42c-.42-.67-3.38-1.74-3.38-1.93a.09.09,0,0,1,.08,0c.08,0,.2,0,.36,0a19.92,19.92,0,0,0,3.11.37c1.29,0,1.91-.39,1.93-1.54,0-.65,0-1.93,0-3.53,0-2.58,0-6-.05-9Zm.45-6.61c-.45.23-.48.23-.51,1,0,.31,0,.81,0,1.46h5.49c0-1.07,0-1.82-.05-2.16a.31.31,0,0,0-.31-.31Zm-.54,3.19c0,.79,0,1.71.06,2.69h5.49c0-1,0-1.9,0-2.69ZM10,148.23c0,.48-.11,1.71-.11,2.52a23.34,23.34,0,0,0,.61,5,2.79,2.79,0,0,1,.11.81c0,.78-.33,1.17-.72,1.17s-1.07-.61-1.18-1.93a16.24,16.24,0,0,0-1.46-4,20,20,0,0,0-1.23,3c-.36,1.18-1.15,1.85-1.68,1.85-.28,0-.47-.19-.47-.64,0-1,1.59-3.75,2.77-5.43A16.17,16.17,0,0,0,5,148.06a2.09,2.09,0,0,1-.56-1.17c0-.28.17-.56.62-.76A4.17,4.17,0,0,0,6.55,145a16.84,16.84,0,0,1,3.33-2.72c0-.44.09-.86.09-1.26s0-.95,0-1.34c0-1.37,0-2.69-1.66-3.67-.28-.19-.42-.28-.42-.39s.45-.42,1-.42c.08,0,2.35,0,2.35,2.88,0,.59-.36,3.25-.45,3.73H11c1.2,0,1.59.31,1.59.75,0,.65-.75,1.54-1.28,2.36-.34.5-.73,1.14-1.15,1.82l-.06.5.28-.25c2.8-2.91,5.57-4,8-4,3,0,6.39,2.07,6.39,5.46,0,5.88-8.63,8.84-10.19,8.84-.09,0-.12,0-.12-.05s.34-.28,1-.53c1.73-.73,7.47-3.84,7.47-8.18,0-2.66-2.32-4.37-5.15-4.37-2.1,0-4.7,1-7.45,3.84Zm-.17-4.81A5.62,5.62,0,0,0,7.56,146,1.77,1.77,0,0,1,6,147.25c-.28.06-.33.14-.33.25a10.34,10.34,0,0,0,1.29,2.61,5.77,5.77,0,0,1,.39-.51,37.44,37.44,0,0,0,2.18-3.36C9.6,145.24,9.72,144.28,9.8,143.42Zm-2.18,7.84c.81,1.51,1.06,1.73,1.17,1.73s.14-.05.14-.22v-.34a24.5,24.5,0,0,1,.25-3.27C8.62,149.86,8.12,150.56,7.62,151.26ZM10.78,144a1.36,1.36,0,0,0,.17-.59c0-.17-.06-.31-.25-.31h0c-.09.48-.2,1-.28,1.6ZM11,174.69v.06s.09-.14.2-.48c.75-2.41,2.15-3.55,3.53-3.55,2.88,0,4.31,4.31,4.31,7.95,0,9.07-7.87,13.49-9,13.49a.06.06,0,0,1-.06,0c0-.09.28-.34.93-.76,3.75-2.41,6.3-7.45,6.3-12.51,0-3.5-1.21-6.92-3.05-6.92-1.54,0-3.11,2.32-3.11,5.26a7.72,7.72,0,0,0,.84,3.48,1.86,1.86,0,0,1,.17.75c0,.73-.4,1.37-.87,1.37-.81,0-1.88-2.4-1.88-4.34a17.46,17.46,0,0,1,.56-3.83,25,25,0,0,0,.79-4.82c0-.75-.14-1.34-.51-1.51-.19-.08-.39-.22-.39-.42s.53-.5.76-.5c.5,0,1.51.44,1.51,2.24,0,.78-.06,1-1,4.67C11.06,174.47,11,174.61,11,174.69ZM4.7,217.9c0-3.14,1.12-5.72,1.57-8a9.75,9.75,0,0,0,.2-1.9,5.92,5.92,0,0,0-.62-2.89c-.11-.22-.33-.42-.33-.53s.19-.17.56-.17c.89,0,2.15,1.43,2.15,3.31a7.89,7.89,0,0,1-.75,2.88,16.49,16.49,0,0,0-1.57,5.88c0,1.09.25,1.9.45,1.9s.22-.11.36-.44c.76-1.68,2.35-5.16,2.77-5.16.06,0,.09,0,.09.12a1.84,1.84,0,0,1-.14.5c-.82,2-2,5.49-2,7.39a6,6,0,0,0,.2,1.6,4.12,4.12,0,0,1,0,.45.79.79,0,0,1-.75.89C5.26,223.69,4.7,219.46,4.7,217.9Zm14.23,4.64c-5.32,0-6.19-3-6.19-3.61,0-.17.06-.25.14-.25s.34.17.56.5c.59.84,2.49,1.43,4.59,1.43a10.54,10.54,0,0,0,1.57-.11,12.33,12.33,0,0,1,2.07-.5h.17c.92,0,1.43.42,1.43.89C23.27,222.21,20.5,222.54,18.93,222.54ZM17.3,209.72c-3.83,0-4.2-2.27-4.2-2.46s0-.12.09-.12a1.33,1.33,0,0,1,.47.23,5.68,5.68,0,0,0,2.8.67,13.48,13.48,0,0,0,2.33-.25c.39-.09.7-.28,1.06-.37a2.35,2.35,0,0,1,.59,0c.78,0,1.26.39,1.26.84C21.7,209.52,18.23,209.72,17.3,209.72Zm-.44,28.95a17.74,17.74,0,0,0,1.48,6.16,14.61,14.61,0,0,0,2.44-4.23c0-.11,0-.19.11-.19s2.29,1.43,2.29,2c0,.19-.22.36-.64.36H22.2a.57.57,0,0,0-.56.31,22.79,22.79,0,0,1-2.46,3.22,6.77,6.77,0,0,0,3.61,2.8c.79,0,1.65-1.26,2.66-3.33.25-.51.25-.25.25-.23,0,.45-.44,2.33-.44,3.45a1.21,1.21,0,0,0,.16.73,1.17,1.17,0,0,1,.37.84c0,.47-.37.86-1.15.86a8.7,8.7,0,0,1-6.38-4.17,17.89,17.89,0,0,1-10.59,4.48c-.17,0-.25,0-.25-.05s.39-.23,1-.37a16.18,16.18,0,0,0,9.07-5.37,23.82,23.82,0,0,1-2.16-7.23H6.86a.75.75,0,0,1-.2.11c-.33.17-.39.2-.39.76v1.65c0,4.45-.59,9.61-5.23,12.46a2.73,2.73,0,0,1-1,.45A.06.06,0,0,1,0,254c0-.08.14-.28.56-.61,3.22-2.69,3.92-6.75,3.92-10.73a29.31,29.31,0,0,0-.5-5.82.45.45,0,0,1,0-.17c0-.05,0-.08,0-.08a12,12,0,0,1,2.92,1.23.76.76,0,0,1,.16.11h8.18a33.14,33.14,0,0,0-.7-3.89.49.49,0,0,1-.08-.22c0-.06,0-.06.16-.06.65,0,3,.31,3,.9,0,.16-.17.33-.45.47-.45.23-.48.23-.48.79,0,0,0,.72.06,2h3.84a.57.57,0,0,0,.47-.25c.56-.78,1.18-1.62,1.54-1.62a.5.5,0,0,1,.17,0,4.58,4.58,0,0,1,2.38,2.22c0,.16-.14.33-.62.33Zm-15,18.57c0-.54.42-1.12,1.35-1.43a6.44,6.44,0,0,0,3.22-2.94c.08-.14.14-.2.17-.2s.05.11.05.28c0,2.69-1.87,5.21-3.75,5.21A.93.93,0,0,1,1.9,257.24Zm9.19-15.54A14.56,14.56,0,0,0,8.2,242h0c-.31,0-1.1-1-1.1-1.32a22.87,22.87,0,0,0,4,.39h.53a.53.53,0,0,0,.33-.22c.26-.5.84-1.15,1-1.15s.11,0,.14,0c1.51.7,1.74,1.43,1.74,1.62s-.12.4-.54.4Zm-1.6,6c0,.39,0,.72,0,1a.82.82,0,0,1-.92.79.6.6,0,0,1-.65-.62v-.08c.06-.9.14-1.88.14-3.17a12.93,12.93,0,0,0-.22-2.27c0-.05,0-.11,0-.16s0-.09.08-.09a10,10,0,0,1,2.13.81l0,0H12a.36.36,0,0,0,.34-.17,2.66,2.66,0,0,1,.48-.56c.08,0,.14-.08.22-.08s1.88.81,1.88,1.37c0,.25-.28.42-.51.56-.39.25-.45.28-.45.9,0,.45.12.7.17,1.45v.06a.89.89,0,0,1-.92.84.62.62,0,0,1-.67-.64Zm7,10.86c-1,.06-2,.11-2.8.11-4.2,0-4.73-1.09-4.73-2v-.11c0-.7.11-1.43.11-2A13,13,0,0,0,9,252.62a.62.62,0,0,1,0-.2c0-.06,0-.06.11-.06.23,0,2.78.23,2.78.84,0,.14-.2.34-.54.51-.5.25-.5.28-.56.92a8.58,8.58,0,0,0-.08,1.43c0,.7.14,1.09,3.64,1.09,3.19,0,3.89-.47,4.45-3.5,0-.22.09-.31.11-.31.17,0,.37,2.19.9,2.52a1.08,1.08,0,0,1,.62.87C20.36,257.52,19,258.41,16.52,258.58ZM10,244.72c-.06,0-.09.08-.14.11-.31.2-.31.2-.34.7V247h3c0-.44,0-.84,0-1.17s0-.65,0-.87a.34.34,0,0,0-.31-.28Zm4.56,9.55a8.69,8.69,0,0,0-2-2.33c-.2-.16-.31-.25-.31-.28s0,0,.11,0c.42,0,4.17.25,4.17,2.29a1,1,0,0,1-.92,1.12A1.19,1.19,0,0,1,14.53,254.27Zm5.07-18a8.81,8.81,0,0,0-1.93-2c-.17-.14-.28-.22-.28-.25s.14-.08.39-.08c.64,0,3.58.28,3.58,1.93a1,1,0,0,1-.86,1A1,1,0,0,1,19.6,236.29Zm3.7,20.3A10.83,10.83,0,0,0,20,253c-.11-.09-.17-.14-.17-.2s.06-.06.14-.06c.53,0,5.52,1.26,5.52,3.59a1.11,1.11,0,0,1-1,1.2C24.14,257.57,23.69,257.29,23.3,256.59Zm-18,17.33a20.8,20.8,0,0,0-3.39.26h0c-.33,0-1.15-1-1.15-1.35a30.66,30.66,0,0,0,4.62.39H6.75a.52.52,0,0,0,.31-.22c.19-.34.86-1.46,1.14-1.46.06,0,.12,0,.14,0,.7.31,2,1.57,2,2.07,0,.17-.11.28-.5.28Zm-.14-3.78c-.31,0-.65.09-1.88.23h0c-.39,0-1.06-.9-1.06-1.32a20.2,20.2,0,0,0,3,.39H6a.47.47,0,0,0,.31-.22c0-.06.73-1.34,1.09-1.34a.28.28,0,0,1,.14,0,3.24,3.24,0,0,1,1.79,1.91c0,.17-.11.33-.5.33ZM18,279.75c1.8.42,3,1.51,3,2.55a1,1,0,0,1-.87,1.06c-.33,0-.67-.25-.86-.87a7.09,7.09,0,0,0-1.4-2.43c-.34.64-.65,1.26-1,1.84,0,2.92,0,5.58,0,6.08s.12,1.34.12,1.76a2.33,2.33,0,0,1-2.44,2.38c-.22,0-.31-.08-.42-.3-.22-.51-2-1.43-2-1.6s0-.06.08-.06a1.06,1.06,0,0,0,.14,0,17,17,0,0,0,2,.25c.65,0,1.07-.19,1.1-.84,0-.44,0-2.74,0-5.51a17.13,17.13,0,0,1-7,6.41.94.94,0,0,1-.93.64.67.67,0,0,1-.73-.72l0-.68H4.09l0,1.77c0,.5-.54.81-1,.81a.61.61,0,0,1-.67-.64v-.09c.16-2.1.19-3.3.19-4.39a28.51,28.51,0,0,0-.33-4.4,1.06,1.06,0,0,0,0-.14c0-.08,0-.08.08-.08l.2.05A9.66,9.66,0,0,1,4.7,283.7l0,0H6.24a.48.48,0,0,0,.37-.22c.22-.36.61-.76.75-.76.45,0,2,1.1,2,1.57,0,.28-.31.48-.56.65s-.5.42-.5,1.51.08,2,.19,3.58a26.15,26.15,0,0,0,6.42-7.25c-1.46.76-3.08,1.48-4.09,1.9-.23.09-.31.37-.48.37s-1.2-1.4-1.2-1.63c0-.05,0-.05.17-.05a8.57,8.57,0,0,0,1.76-.23c0-1.79.06-8.54.06-9.4a23.27,23.27,0,0,0-.28-3v-.11c0-.06,0-.09.05-.09a8.29,8.29,0,0,1,2.21,1.26h.06a17.65,17.65,0,0,0,.76-4.14c0-.28,0-.28.05-.28.2,0,2.55.73,2.55,1.26,0,.17-.2.31-.64.42s-.34.17-.54.45c-.42.61-1,1.37-1.68,2.29H15a.38.38,0,0,0,.33-.19,1.52,1.52,0,0,1,.39-.51A.3.3,0,0,1,16,271c.22,0,1.74.92,1.74,1.51,0,.25-.23.39-.45.53-.37.26-.37.23-.39.62s0,2.88,0,5.54a5,5,0,0,0,.61-1.84c0-.14,0-.26.06-.26s1.88.79,1.88,1.35c0,.19-.23.36-.68.39-.28,0-.36.2-.56.59ZM5.1,277.31c-.26,0-.76.11-1.63.23h0a1.84,1.84,0,0,1-1.06-1.32,19.35,19.35,0,0,0,2.77.39h.56a.43.43,0,0,0,.31-.22c0-.06.67-1.26,1-1.26a.21.21,0,0,1,.14,0c.72.33,1.68,1.34,1.68,1.76,0,.2-.12.39-.51.39Zm0,3.59a12.89,12.89,0,0,0-1.63.22h0c-.36,0-1.06-.9-1.06-1.32a20.24,20.24,0,0,0,2.77.4h.56A.45.45,0,0,0,6,280c.14-.25.73-1.26,1-1.26a.21.21,0,0,1,.14,0c.25.11,1.68,1.12,1.68,1.79,0,.17-.12.37-.51.37ZM6.83,289c0-1,0-1.66,0-2.3s0-1.23-.06-1.93c0-.09,0-.31-.19-.31h-2a1.15,1.15,0,0,1-.2.14c-.28.2-.33.39-.33.92,0,1.15,0,2.33,0,3.48Zm8.65-13.84c0-1.14,0-2,0-2.38a.27.27,0,0,0-.31-.28H12.94s-.09,0-.14.06c-.23.11-.28.06-.28.53,0,.31,0,1.07,0,2.07Zm0,.76h-3v2.63h3Zm0,5.85,0-2.46h-3v3.5c.95-.23,2-.53,2.88-.84Zm7.67-5.88v1.91c0,2.85,0,5.82.09,8.2,0,.53.11,2.77.11,3.39a2.89,2.89,0,0,1-2.8,2.88c-.22,0-.31-.05-.42-.31-.39-.7-2.18-1.84-2.18-2.1,0,0,0,0,.08,0a1.29,1.29,0,0,1,.25,0,8.86,8.86,0,0,0,2.07.34c1,0,1.29-.39,1.32-1.2,0-1.63.06-3.81.06-6.16s0-4.82-.06-6.95a29.13,29.13,0,0,0-3.05.25h0c-.31,0-1.06-1-1.06-1.34a33.15,33.15,0,0,0,4.14.36c-.08-4.7-.14-5.79-.39-7a.44.44,0,0,1,0-.16c0-.06,0-.09.08-.09.23,0,3,.48,3,1.07,0,.22-.25.44-.51.58-.56.31-.56.06-.61,1.43-.06,1.18-.09,2.63-.09,4.2h.4a.48.48,0,0,0,.3-.22c.7-1.18.82-1.29,1-1.29,0,0,.09,0,.11,0a3.77,3.77,0,0,1,1.63,1.9c0,.14-.11.28-.48.28Zm-8.59,49.23c-2.47,0-6.11-1.18-6.11-8.29,0-3.08.65-6.22.65-9.27a5,5,0,0,0-.79-3.33c-.25-.28-.36-.45-.36-.56s.11-.17.31-.17a2.87,2.87,0,0,1,2.94,3,5.19,5.19,0,0,1-.09.92c-.3,2.1-1.34,6.44-1.34,9.94,0,1.63.14,6,5.1,6a13.35,13.35,0,0,0,8.28-3.62,1.18,1.18,0,0,1,.51-.3s0,0,0,.05C23.74,319.93,19.63,325.14,14.59,325.14Zm2.6,33.34c-1.31,0-5.88-.47-5.88-7.08,0-3.44,1.21-7.45,2.69-9,.2-.19.34-.33.34-.39a0,0,0,0,0,0,0,47.39,47.39,0,0,0-6.25,2.77,4.14,4.14,0,0,1-1.84.42c-1.26,0-2.41-.53-2.41-1.48,0-.11,0-.28.22-.28a5,5,0,0,1,.59.11,9.32,9.32,0,0,0,1.37.14,5,5,0,0,0,1.63-.28c1.31-.45,6.21-3.08,10.47-4.2a8.61,8.61,0,0,1,2.27-.56h.14c2.57,0,3,.9,3,1.35s-.42.86-1.34.86a5.13,5.13,0,0,1-.65,0,8.13,8.13,0,0,0-1.51-.11,9.75,9.75,0,0,0-4,.78c-2,1.09-3.5,5.43-3.5,9,0,5.72,3.64,5.94,4.48,5.94a5.15,5.15,0,0,0,1.65-.28,2.44,2.44,0,0,1,.73-.11c.76,0,1.26.42,1.26.92C20.58,358.09,18.31,358.48,17.19,358.48Z"/></g></g></svg>