<svg xmlns="http://www.w3.org/2000/svg" viewBox="0 0 27.19 394.63"><defs><style>.cls-1{fill:#333434;}</style></defs><g id="レイヤー_2" data-name="レイヤー 2"><g id="レイヤー_1-2" data-name="レイヤー 1"><path class="cls-1" d="M14.45,18.4c0,2.07.08,4.06.11,5.79,0,.84-.84,1.07-1.26,1.07a.77.77,0,0,1-.84-.84V24.3c.11-1.62.2-3.69.25-5.9-1.17,0-3.3.08-4.23.19-.58,0-1.06-.92-1.06-1.2a40,40,0,0,0,5.29.31c.06-2.75.09-5.69.09-8.24-4.62,8.52-12,12-12.72,12,0,0,0,0,0,0s.16-.22.53-.48A38.21,38.21,0,0,0,11.84,7.53h-.95c-1.57,0-5.29.06-7.78.31h0c-.5,0-1.26-1.09-1.26-1.46,2.88.34,7.56.45,9.18.45h1.77c0-4.53-.17-5.93-.34-6.61a.49.49,0,0,1,0-.19s0,0,0,0c.62,0,3.33.48,3.33,1.06,0,.2-.22.42-.58.65-.65.36-.56.31-.65,1.17s-.14,2.16-.17,4h6a.58.58,0,0,0,.48-.25c.25-.39,1.18-1.79,1.63-1.79a.3.3,0,0,1,.16,0c.84.3,2.52,1.84,2.52,2.38,0,.16-.14.33-.61.33H14.84c2.21,4.17,6.83,9.63,12,11.31.17.06.25.12.25.14,0,.28-2.6.37-3.38,1a.65.65,0,0,1-.34.14c-.73,0-6.63-5.68-9-12.57V9.24c0,2.58,0,5.57.09,8.46h.84a.65.65,0,0,0,.53-.31c.87-1.32,1.12-1.4,1.2-1.4.42,0,2.33,1.48,2.33,2,0,.17-.14.37-.56.37Zm6.3,33.76H13.69c-1.54,0-6.41.09-8.93.34h0c-.53,0-1.45-1.2-1.45-1.57,2.91.37,8.93.48,10.52.48h7c0-1.51,0-3.25,0-4.9H13.05c-1.54,0-4.2.05-6.67.31h0c-.54,0-1.46-1.12-1.46-1.49a81.29,81.29,0,0,0,8.26.42h7.61c0-1.65,0-3.13-.05-4.09a.31.31,0,0,0-.28-.28H13.05c-1.54,0-5.52.09-8,.34H5c-.53,0-1.51-1.18-1.51-1.54,2.63.34,7.11.42,9.13.45,0-1.43.06-3.45.06-5a32.46,32.46,0,0,0-.31-6.27.54.54,0,0,1,0-.2s0,0,0,0c.22,0,3.33.45,3.33,1.07,0,.19-.17.39-.45.56-.64.42-.75.11-.84,1.42,0,.7-.05,2.36-.05,4s0,3.47,0,4.45h5.69a.42.42,0,0,0,.39-.17c.73-.73.9-.73.95-.73s2.38.9,2.38,1.6c0,.31-.39.5-.73.67a.79.79,0,0,0-.53.76c0,.44,0,1,0,1.68,0,2.77.14,6.8.2,8.45V53a1.16,1.16,0,0,1-1.2,1,.72.72,0,0,1-.76-.78ZM7.87,37a18,18,0,0,0-4.15-4.48c-.11-.08-.14-.14-.14-.16s0,0,.09,0c.42,0,6.41,1.82,6.41,4.48,0,.67-.39,1.2-.92,1.2S8.29,37.77,7.87,37ZM23,34h-.48a.94.94,0,0,0-.7.34c-2.49,2.18-5.12,4.42-5.79,4.42a.06.06,0,0,1-.06,0c0-.06.08-.17.28-.39S20,33.94,20.8,31.56c.06-.2.09-.31.17-.31s2.8,1.73,2.8,2.35C23.77,33.82,23.49,34,23,34ZM14.42,66.5c0,6.13-4.9,12.38-7.31,12.38-1.37,0-1.87-1.88-3-3.53a4.35,4.35,0,0,1-.67-2.55c0-4.26,3.72-11,11.28-11,6.36,0,9.63,4.39,9.63,9,0,8.51-9.74,10.92-12,10.92-.25,0-.39-.06-.39-.12s.45-.36,1.26-.58c7.36-2,9.35-6.86,9.35-10.34,0-4.14-2.86-7.92-8.17-7.92-.34,0-.68,0-1,.06C14,63.28,14.42,64.71,14.42,66.5Zm-1-1c0-2-.48-2.49-1.09-2.49a1,1,0,0,0-.28,0,.69.69,0,0,1-.23,0,9.88,9.88,0,0,0-7,9.1c0,2.46,1.23,4.34,2.57,4.34C9.27,76.5,13.44,70.64,13.44,65.49Zm6.08,45.19,0-1.4H7.76v1.35a1.18,1.18,0,0,1-1.24,1.06.78.78,0,0,1-.81-.87v-.08c.2-3.16.25-6.58.25-9.86,0-3.47,0-8.45-.44-10.47a.69.69,0,0,1,0-.19c0-.06,0-.09,0-.09a11.34,11.34,0,0,1,2.94,1.32s.08,0,.11.08h2.6a14.87,14.87,0,0,0,.73-3.92,8.64,8.64,0,0,0,0-.92v-.06c0-.08,0-.11.09-.11.22,0,3.35,1,3.35,1.6,0,.22-.3.42-1,.47-.33,0-.42.2-.56.39-.44.59-1.17,1.8-1.73,2.55h6.69a.61.61,0,0,0,.45-.25c.19-.28.78-.92,1-.92s2.49,1.26,2.49,1.93c0,.31-.33.53-.81.75s-.58.34-.58,4c0,3.84.14,9.88.25,13.36.05,1.06-1.09,1.17-1.24,1.17a.77.77,0,0,1-.83-.84Zm.08-13H7.73c0,1.37,0,3,0,4.65H19.6Zm-11.9,5.4c0,1.8,0,3.64,0,5.41H19.54c0-1.79.06-3.61.06-5.41Zm.76-10.8a1.52,1.52,0,0,1-.23.16c-.47.31-.5.45-.5,1.21V97H19.6c0-1.7,0-3.19-.08-4.25a.37.37,0,0,0-.37-.39Zm5.62,35.11a.22.22,0,0,1,.14.19c0,.17-.25.34-.58.48s-.42,0-.62,1c-1.29,6.77-5.35,10.27-11.34,11.17a4.55,4.55,0,0,1-.73.08c-.17,0-.25,0-.25-.08s.34-.22.76-.34c5.2-1.48,8.51-4.73,9.66-10.72a11.5,11.5,0,0,0,.19-1.71c-1.12.06-2.38.14-3.67.25h0a1.67,1.67,0,0,1-1-.67c-2.88,2.89-5.23,3.53-5.32,3.53s-.05,0-.05,0,.14-.19.42-.42a22.77,22.77,0,0,0,6.8-8.4A6.75,6.75,0,0,0,9,120c0-.14,0-.22.12-.22.36,0,2.82,1.23,2.82,1.71,0,.22-.25.39-.86.5-.45.08-.54.14-.84.62a29.05,29.05,0,0,1-3.06,4c2,.17,4.23.23,5.72.23h.75l3.92-.06a.52.52,0,0,0,.48-.22c.53-.59.61-.68.72-.68s2.13,1.1,2.13,1.68c0,.17-.14.34-.53.54s-.36.3-.39.95c-.06,2.85-.28,6-1.26,7.92a5,5,0,0,1-4.56,2.89h-.26a.51.51,0,0,1-.44-.34c-.28-.64-3.36-2.32-3.36-2.52,0,0,0,0,0,0a1.75,1.75,0,0,1,.37.09,12.62,12.62,0,0,0,3.75.81c2.49,0,4-1.91,4-8.71,0-.42,0-.81,0-1.2s0-.48-.42-.48Zm.26-9.13a37.53,37.53,0,0,0-4.12.28h0c-.42,0-1.26-1.09-1.26-1.43a43.5,43.5,0,0,0,5.35.42H15.6a.67.67,0,0,0,.44-.25c.17-.22.76-.84,1-.84s2.05,1.18,2.05,1.65c0,.31-.4.53-.84.65-.76.19-1.21.19-1.21.5,0,.73,3.64,6.83,9.89,8.29.16,0,.25.08.25.14,0,.25-2.5.64-3.14,1.29a.4.4,0,0,1-.28.14c-.89,0-5.79-4.6-7.7-10.39-.11-.37-.28-.45-.56-.45Zm-1.26,42.36c-2.41,1.46-3.39,2.92-3.39,4.09,0,.93.89,2.49,3.61,2.49a7.24,7.24,0,0,0,3.3-.78,1.7,1.7,0,0,1,.84-.22.91.91,0,0,1,1,.81c0,1.06-2.24,1.85-4.37,1.85-3.22,0-5.4-2-5.4-3.87s1.82-3.81,4.4-5.32c0-1.34-.14-4.17-1.88-4.17-.76,0-1.74.62-2.86,2.21-.19.34-.39.76-.61,1.18-.42.78-1.21,2.13-2,2.13-.2,0-.73-.17-.73-.93a3,3,0,0,1,1.09-2,17.12,17.12,0,0,0,4.68-6.69c0-.11.08-.22.14-.33l-.2,0a5.28,5.28,0,0,1-1.51.23c-2.86,0-3.44-2-3.44-2.47,0-.05,0-.11.08-.11a2.33,2.33,0,0,1,.64.36A4.08,4.08,0,0,0,9,150a8.37,8.37,0,0,0,2.46-.42,3.49,3.49,0,0,0,.09-.9c0-1-.28-1.54-1.12-1.73-.17-.06-.39-.12-.39-.26s.75-.56,1.17-.56a1.53,1.53,0,0,1,1.6,1.4,1.47,1.47,0,0,1,.33,0,4.5,4.5,0,0,0,.62,0,3.76,3.76,0,0,0,.81-.08.79.79,0,0,1,.34-.09.63.63,0,0,1,.59.7c0,1.09-1.54,2-3.36,2.66L12,151a44.48,44.48,0,0,1-2.26,4.39,3.33,3.33,0,0,1,1.65-.47c1.43,0,2.49,1.23,2.85,2.91,1.21-3,3.5-6,6.25-6,1.48,0,3.41,1.12,3.41,2.44,0,1.09-1.26,2.18-3.08,2.91s-4.39,1.74-6.3,2.69a15.9,15.9,0,0,1,.09,1.71c0,.42,0,.87-.06,1.29-.08,1-.75,1.68-1.26,1.68-.36,0-.64-.31-.64-1.1,0-.11,0-.22,0-.36a15,15,0,0,0,.39-1.93Zm-.28-13v.22a5.56,5.56,0,0,1-.14,1.15c.61-.25,1.06-.61,1.06-.87s-.64-.42-.67-.42A.81.81,0,0,1,12.8,147.7ZM14.39,159c1.65-.86,3.95-2,5.6-2.82,1.2-.65,2-1.32,2-2a1.68,1.68,0,0,0-1.76-1.48c-2.66,0-5.1,4.14-5.8,6.27ZM8.76,185.81A19,19,0,0,1,8,190.29c2.49.19,5.15,1.51,5.15,3.16a1,1,0,0,1-.87,1.07,1.55,1.55,0,0,1-1.23-.9,12.41,12.41,0,0,0-3.17-3,10.57,10.57,0,0,1-7.81,7.45c-.08,0-.11,0-.11,0s.2-.26.73-.51c4.37-2.15,6.1-7,6.35-11.7H6.52a36.74,36.74,0,0,0-4.39.25h0c-.45,0-1.18-1-1.18-1.34a48,48,0,0,0,5.69.39h.5V182.5c0-.72-.05-2.15-.17-3.27H5.32c-2,3.22-3.5,4.39-3.72,4.39,0,0,0,0,0-.05a1.93,1.93,0,0,1,.36-.65c1.18-1.7,3.61-6.77,3.61-9.1,0-.3.06-.3.06-.3s2.83.86,2.83,1.45c0,.23-.23.45-.76.56s-.39.17-.56.51c-.36.72-.84,1.59-1.37,2.49H9.63a.55.55,0,0,0,.37-.23c.33-.56,1.06-1.42,1.26-1.42l.14,0c.84.34,2.12,1.52,2.12,2,0,.17-.11.31-.56.31H9.52a.25.25,0,0,1,.11.22c0,.14-.11.28-.42.45s-.39.42-.39,1.68c0,1,0,2,0,3.11v.42h1.26a.71.71,0,0,0,.42-.28c.81-1.37.95-1.57,1.21-1.57l.16,0c.76.31,2.22,1.68,2.22,2.21,0,.17-.12.31-.56.31Zm13.67,10.36c0-.53,0-1.18,0-1.88H16.91l0,2.33a1.06,1.06,0,0,1-1.12.95.72.72,0,0,1-.78-.79v-.08c.19-2.8.25-8.76.25-12.63,0-1.43,0-2.57,0-3.13a24,24,0,0,0-.31-3.53.48.48,0,0,1,0-.17c0-.06,0-.08.06-.08a12.13,12.13,0,0,1,2.63,1.14l0,0h4.14a.57.57,0,0,0,.42-.22c.09-.11.53-.79.9-.79.17,0,2.24,1,2.24,1.6,0,.31-.36.5-.65.67-.55.31-.55.39-.55,2.94,0,3.47.08,10.25.22,13.44a1.08,1.08,0,0,1-1.12,1,.76.76,0,0,1-.81-.81Zm.05-2.61c0-1.79,0-3.89,0-6,0-3.75,0-7.28-.08-8.18a.38.38,0,0,0-.42-.33H17.58s-.08.08-.14.11c-.44.31-.44.14-.5,1.09,0,.76-.06,2.89-.06,5.43s0,5.46,0,7.84ZM11.06,210v.06s.08-.14.2-.48c.75-2.41,2.15-3.56,3.52-3.56,2.89,0,4.32,4.32,4.32,8,0,9.07-7.87,13.49-9,13.49a.06.06,0,0,1-.06-.05c0-.09.28-.34.93-.76,3.75-2.41,6.29-7.45,6.29-12.52,0-3.5-1.2-6.91-3-6.91-1.54,0-3.1,2.32-3.1,5.26A7.68,7.68,0,0,0,12,216a1.92,1.92,0,0,1,.16.76c0,.73-.39,1.37-.86,1.37-.82,0-1.88-2.41-1.88-4.34a17.46,17.46,0,0,1,.56-3.83,25.08,25.08,0,0,0,.78-4.82c0-.76-.14-1.34-.5-1.51-.2-.09-.39-.23-.39-.42s.53-.51.75-.51c.51,0,1.52.45,1.52,2.24,0,.79-.06,1-1,4.68C11.09,209.78,11.06,209.92,11.06,210ZM8.12,239.4c-3.22,0-3.81-2.13-3.81-2.55,0-.11.06-.16.11-.16A1.66,1.66,0,0,1,5,237a6.12,6.12,0,0,0,3.06.93,10.88,10.88,0,0,0,2.24-.28,12.75,12.75,0,0,0,.14-1.74c0-1-.2-1.82-.82-1.9-.3,0-.7-.14-.7-.37a1.44,1.44,0,0,1,1.26-.72c.54,0,1.71.42,1.85,2.18a10.82,10.82,0,0,0,1.82.42c.48.06.81.34.81.76,0,1.17-2.32,2.15-3.36,2.52,0,.16-.11.3-.16.47A115.11,115.11,0,0,0,7.25,252c-.31,1.43-1.09,2.33-1.65,2.33s-.84-.48-.84-1.29a3.6,3.6,0,0,1,.56-1.77A111.34,111.34,0,0,0,10,239.15,7.42,7.42,0,0,1,8.12,239.4Zm3.64-2.32c.76-.39,1.18-.79,1.18-1s-.28-.48-.93-.76A7,7,0,0,1,11.76,237.08Zm8.85,17.08c-3.39,0-6.58-1.77-6.58-3.81,0-.81.59-1.68.87-1.68.08,0,.14.08.14.22a1.11,1.11,0,0,1-.12.42,1.23,1.23,0,0,0-.14.53c0,1.21,2,2.41,4.65,2.41.51,0,1-.14,1.82-.14h.06c1.31,0,2,.48,2,.95C23.3,253.18,23.27,254.16,20.61,254.16Zm2.83-13.53a7.79,7.79,0,0,0-4.09,2,.57.57,0,0,1-.37.17c-.08,0-.11,0-.11-.09a.37.37,0,0,1,.11-.25,18.48,18.48,0,0,0,1.37-1.68,1.6,1.6,0,0,0,.4-.87c0-.84-1.71-1.09-2.27-1.09a1,1,0,0,0-.31,0,3.41,3.41,0,0,1-.64.11c-.11,0-.17,0-.17-.08a2.92,2.92,0,0,1,2.38-.87c2.57,0,4.45,1.32,4.45,2C24.19,240.3,23.88,240.55,23.44,240.63ZM7.11,268.69a10.19,10.19,0,0,1-.28,2,12.08,12.08,0,0,0-.25,2.46c0,4.73,2.83,5.6,3.28,5.6a1,1,0,0,0,.89-.53c.56-.95,1.23-2.6,1.74-3.67.31-.61.47-.84.53-.84s.06.06.06.11a5.28,5.28,0,0,1-.17,1,18.3,18.3,0,0,0-.53,4c0,.48,0,.81,0,1.15v.17c0,.84-.61,1.2-1.4,1.2a4.47,4.47,0,0,1-2.66-1c-2.43-2-3.27-4.62-3.27-8.34,0-.59,0-1.2.05-1.85,0-.47.06-1,.06-1.43a9.79,9.79,0,0,0-.2-2.1,1.76,1.76,0,0,1,0-.33c0-.17.08-.25.19-.25A2.73,2.73,0,0,1,7.11,268.69Zm15.12,5.74a6.17,6.17,0,0,0-4.39-5.49c-.82-.2-1.21-.39-1.21-.5s.2-.12.56-.12c3.87,0,7.11,3,7.11,5.74,0,1-.56,1.52-1.12,1.52S22.29,275.21,22.23,274.43Zm-9.74,31.36c.11.47.25,1,.42,1.48a1.59,1.59,0,0,1,.08.45,1,1,0,0,1-.87,1.12c-.33,0-.72-.34-.92-1.17,0-.12,0-.26-.06-.37-1.2,1.2-3.38,3.11-5.2,3.11a1.78,1.78,0,0,1-1.8-2c0-3.22,4.74-7.56,7-9.1.14-1.29.28-2.52.39-3.59a12.15,12.15,0,0,1-2.07.26c-3.22,0-3.27-2.58-3.27-2.66s0-.17.11-.17a.9.9,0,0,1,.36.14,6.3,6.3,0,0,0,3.42,1.29,6,6,0,0,0,1.59-.23c.06-.56.12-1,.12-1.4s0-.73,0-1c0-1-.14-1.43-.92-1.52-.25,0-.5-.11-.5-.3a1.05,1.05,0,0,1,1-.68c.2,0,2,.34,2,1.88a13.38,13.38,0,0,1-.25,1.62c-.06.34-.09.68-.14,1a24.38,24.38,0,0,0,2.52-1.09c.42-.23.84-.59,1.2-.73a1.81,1.81,0,0,1,.62-.11c.53,0,.95.28.95.67s-.2.56-.65.81a24.22,24.22,0,0,1-4.87,1.91c-.19,1.06-.39,2.15-.53,3.3a11.48,11.48,0,0,1,3.61-1.26,1.11,1.11,0,0,0-.39-.95c-.22-.17-.31-.31-.31-.39s.06-.12.2-.12a1.6,1.6,0,0,1,1.51,1.38h.28A6.51,6.51,0,0,1,24,303.83c0,6.89-9.69,9.71-12.63,9.71-.23,0-.31,0-.31-.08s.5-.36,1.6-.67c4.19-1.21,9.49-4.29,9.49-9a5.32,5.32,0,0,0-5.27-5.41C16.69,299.49,15.2,302.6,12.49,305.79Zm-1.6-1.68c0-1.23.09-2.52.2-3.81-3.39,2.41-5.41,5.88-5.41,7.48a.81.81,0,0,0,.87.89c1.46,0,4.29-2.83,4.4-2.94C10.92,305.2,10.89,304.67,10.89,304.11Zm1.32-4.43c-.06.76-.11,1.52-.11,2.27a20.85,20.85,0,0,0,.14,2.35,18,18,0,0,0,3.52-5.9A9.77,9.77,0,0,0,12.21,299.68ZM8,333.79a2.21,2.21,0,0,1-1.77,1.4.57.57,0,0,1-.61-.65,2.54,2.54,0,0,1,.56-1.4,47.15,47.15,0,0,0,5-8.56c0-.12.12-.23.14-.34a7.27,7.27,0,0,1-1.79.25A3.23,3.23,0,0,1,6,321.92c0-.12.06-.14.11-.14a1.59,1.59,0,0,1,.53.25,5.51,5.51,0,0,0,2.89.92,8.52,8.52,0,0,0,2.07-.31,9.66,9.66,0,0,0,.08-1.28c0-1.8-.44-1.82-.7-1.82-.44,0-.7-.09-.7-.28a1.16,1.16,0,0,1,1.12-.84,1.77,1.77,0,0,1,1.74,1.93c2.1.39,2.35.48,2.35,1,0,.78-1.37,1.93-3.11,2.55C12.12,324.66,11.79,325.5,8,333.79Zm5,7.95a3.57,3.57,0,0,1-3.67-3c0-1.66,2.1-2.64,4.9-2.64a10,10,0,0,1,2,.2c0-1.18-.14-2.46-.14-3.5,0-2.41.59-3.78,2.66-5.12.92-.62,1.71-1.26,1.71-1.91,0-.3,0-.36-.79-1.15-.22-.22-.39-.39-.39-.47s.11-.11.36-.11c1.71,0,3.45,1.45,3.45,2.71,0,.42-.28,1.52-1.12,1.52a3.83,3.83,0,0,1-.76-.12,1.13,1.13,0,0,0-.36,0c-.87,0-3.84.28-3.84,3,0,.45.06,1,.11,1.59.09,1.15.37,2.66.42,3.92,2.33.82,4.15,2.22,4.15,3.48a1,1,0,0,1-.81,1.06c-.31,0-.65-.22-1-.78a6.23,6.23,0,0,0-2.43-2.3A4.73,4.73,0,0,1,13,341.74Zm.45-4.76c-2,0-3.3.81-3.3,1.62,0,1,1.42,1.49,2.54,1.49a3.38,3.38,0,0,0,3.5-2.61A8.56,8.56,0,0,0,13.44,337Zm-.5-14.81a4,4,0,0,0,.78-.5.58.58,0,0,0,.2-.42c0-.37-.45-.57-.76-.68A7,7,0,0,1,12.94,322.17ZM8.12,354.76c-3.22,0-3.81-2.13-3.81-2.55,0-.11.06-.17.11-.17a1.58,1.58,0,0,1,.56.29,6.23,6.23,0,0,0,3.06.92,10.88,10.88,0,0,0,2.24-.28,12.75,12.75,0,0,0,.14-1.74c0-1-.2-1.82-.82-1.9-.3,0-.7-.14-.7-.37a1.44,1.44,0,0,1,1.26-.72c.54,0,1.71.42,1.85,2.18a9.85,9.85,0,0,0,1.82.42c.48.06.81.34.81.76,0,1.17-2.32,2.15-3.36,2.52,0,.17-.11.3-.16.47a115.11,115.11,0,0,0-3.87,12.74c-.31,1.43-1.09,2.33-1.65,2.33s-.84-.48-.84-1.29a3.6,3.6,0,0,1,.56-1.77A111.34,111.34,0,0,0,10,354.51,7.42,7.42,0,0,1,8.12,354.76Zm3.64-2.32c.76-.4,1.18-.79,1.18-1s-.28-.48-.93-.76A7,7,0,0,1,11.76,352.44Zm8.85,17.08c-3.39,0-6.58-1.77-6.58-3.81,0-.81.59-1.68.87-1.68.08,0,.14.08.14.22a1.11,1.11,0,0,1-.12.42,1.24,1.24,0,0,0-.14.54c0,1.2,2,2.4,4.65,2.4.51,0,1-.14,1.82-.14h.06c1.31,0,2,.48,2,.95C23.3,368.54,23.27,369.52,20.61,369.52ZM23.44,356a7.79,7.79,0,0,0-4.09,2,.57.57,0,0,1-.37.17c-.08,0-.11,0-.11-.09a.37.37,0,0,1,.11-.25,18.48,18.48,0,0,0,1.37-1.68,1.6,1.6,0,0,0,.4-.87c0-.84-1.71-1.09-2.27-1.09a1,1,0,0,0-.31,0,3.41,3.41,0,0,1-.64.11c-.11,0-.17,0-.17-.08a2.92,2.92,0,0,1,2.38-.87c2.57,0,4.45,1.32,4.45,2C24.19,355.66,23.88,355.91,23.44,356Zm2.29,38.64a4.28,4.28,0,0,1-.92-.11c-5.27-1.26-8-6.08-12.66-9.1a1.87,1.87,0,0,0-1-.31,2.3,2.3,0,0,0-1.52.67,34.19,34.19,0,0,0-2.71,3.84,2.2,2.2,0,0,1-1.82,1,2.47,2.47,0,0,1-2.44-2.13c0-.28.11-.42.25-.42a.46.46,0,0,1,.34.22,1.08,1.08,0,0,0,.87.31,2,2,0,0,0,1.12-.34c.56-.36,2.15-2.07,3.58-3.16a3.77,3.77,0,0,1,2.3-.84,3.47,3.47,0,0,1,1.82.53c5.09,3,8.43,7,12.49,7.53,1.09.14,1.67.79,1.67,1.38S26.65,394.63,25.73,394.63Z"/></g></g></svg>