<svg xmlns="http://www.w3.org/2000/svg" viewBox="0 0 27.36 126"><defs><style>.cls-1{fill:#333434;}</style></defs><g id="レイヤー_2" data-name="レイヤー 2"><g id="レイヤー_2-2" data-name="レイヤー 2"><path class="cls-1" d="M14.25,2.35C16.41,5.1,21.84,9.91,27.1,11c.2,0,.26.09.26.14,0,.25-2.3.65-3.08,1.37a.44.44,0,0,1-.31.14c-.9,0-6.67-3.94-10.14-10l-.14.2C8.18,11.28,1.29,14.14.5,14.14c0,0-.08,0-.08,0s.14-.19.45-.39A32.79,32.79,0,0,0,11.65,2.13,8.29,8.29,0,0,0,12.24.2c0-.12,0-.2,0-.2s3.14,1.26,3.14,1.76c0,.23-.28.42-.93.54Zm-.67,13.47a.26.26,0,0,1,.11.2c0,.16-.14.3-.53.44a1.13,1.13,0,0,0-.59.59c-.64,1.26-1.93,3.78-2.74,5.1,3.41-.31,6.75-.81,9.1-1.21A33.72,33.72,0,0,0,16,18.2c-.12-.11-.17-.17-.17-.22h0c.3,0,7.14,2.68,7.14,5.43,0,.7-.42,1.2-.93,1.2s-.84-.28-1.23-1a12.25,12.25,0,0,0-1.48-2.1,126,126,0,0,1-13.19,3c-.42.09-.62.45-.87.45-.45,0-1.88-2.44-1.88-2.66,0,0,0-.06.06-.06a1.46,1.46,0,0,0,.2,0,17.6,17.6,0,0,0,2.21.14c.42,0,1.71,0,3.13-.17a32.88,32.88,0,0,0,1.57-6.38c-1.68,0-4.23.11-6.3.31h0c-.5,0-1.34-1.09-1.34-1.46,2.83.34,7.08.45,8.68.45H19.4a.56.56,0,0,0,.45-.25c.28-.48,1.23-1.71,1.54-1.71a.34.34,0,0,1,.17,0c.62.22,2.44,1.65,2.44,2.29,0,.17-.12.34-.59.34Zm-.08-4.56c-.84,0-3.2.11-4.54.25h0c-.36,0-1.2-1-1.2-1.37a51.59,51.59,0,0,0,5.82.42h1.23a.54.54,0,0,0,.34-.23s1-1.68,1.29-1.68a.21.21,0,0,1,.14,0c.7.31,2.24,1.74,2.24,2.18,0,.2-.11.4-.53.4ZM6.38,46.84C2.94,50.23.39,50.6.31,50.6s-.09,0-.09-.06S.48,50.26,1,50a22.29,22.29,0,0,0,8.2-10c0-.12-.05-.17-.19-.17l-1.32,0a44.5,44.5,0,0,0-4.56.28h0c-.34,0-1.09-1-1.09-1.32a43.4,43.4,0,0,0,4.39.28v-1a19.26,19.26,0,0,0-.31-3.89.79.79,0,0,1,0-.2s0,0,0,0,3.2.4,3.2,1c0,.2-.17.36-.45.56C8.2,36,8.12,35.7,8,37c0,.44-.06,1.4-.06,2l1.15,0a.56.56,0,0,0,.39-.25c.42-.48.56-.59.7-.59s2,1.07,2,1.6c0,.31-.42.47-.67.59s-.45.22-.81.81a38.3,38.3,0,0,1-2.55,3.67c.75.14.84.33.84.42s-.23.28-.42.39c-.51.25-.59.14-.62,1.09,0,1.4,0,3.25,0,5.18s0,4,.11,5.77c0,.59-.59.95-1.12.95a.72.72,0,0,1-.79-.78v-.09c.2-3.47.28-7.08.28-9.41V46.84Zm4.57,2a9.79,9.79,0,0,0-2.19-2.55c-.19-.17-.3-.25-.3-.28s0-.06.11-.06c.36,0,4.39.48,4.39,2.61a1,1,0,0,1-1,1.12C11.65,49.73,11.26,49.5,11,48.89Zm6.77,7.87c-1.56,0-4.7.05-7.08.28h0c-.47,0-1.26-1.07-1.26-1.4,2.38.28,5.8.39,7.73.42.06-2.41.08-7.14.11-11.26-1.26,0-2.77.08-4.37.25h0c-.48,0-1.21-1.06-1.21-1.4,1.88.25,4,.34,5.6.39,0-2.32,0-4.39,0-5.62a28.9,28.9,0,0,0-.3-4,.44.44,0,0,1,0-.16s0-.06,0-.06c.3,0,3.38.5,3.38,1.09,0,.23-.28.45-.67.65s-.53.33-.56,1.23c0,1.26-.05,3.89-.08,6.94h1.71a.54.54,0,0,0,.42-.25c.84-1.12,1.2-1.6,1.42-1.6s.14,0,.2,0c.48.17,2.38,1.51,2.38,2.19,0,.16-.14.33-.59.33H18.93c0,2.27,0,4.71,0,6.92,0,1.62,0,3.13,0,4.37h2.94a.59.59,0,0,0,.45-.26c.86-1.14,1.31-1.65,1.54-1.65s.14,0,.19,0c.9.34,2.44,1.76,2.44,2.24,0,.17-.11.34-.59.34ZM6.36,91.17a1.11,1.11,0,0,1-1.1,1.06c-.42,0-.78-.28-.78-.92v-.06c.11-3,.22-7.53.28-11.65C2.91,83.83.11,85.15.06,85.15s-.06,0-.06,0,.11-.22.36-.48c1.66-1.73,4.18-6.88,4.43-9.1v-.61A18.45,18.45,0,0,0,2,75.18H2c-.34,0-1.12-1-1.12-1.34a30,30,0,0,0,3.92.39,42,42,0,0,0-.28-6.52.62.62,0,0,1,0-.2c0-.06,0-.06.06-.06s2.85.39,2.85,1c0,.17-.17.34-.47.5-.45.26-.62.2-.68,1.1s-.08,2.38-.08,4.17H6.3A.47.47,0,0,0,6.61,74c.7-1.2.84-1.37,1.06-1.37.06,0,.11,0,.14,0a4.2,4.2,0,0,1,1.63,1.9c0,.17-.12.37-.51.37H6.16v2.66c1.85.17,3.05,1.12,3.05,2.07a.82.82,0,0,1-.73.9c-.28,0-.61-.2-.86-.7a7.06,7.06,0,0,0-1.46-2c0,4.39.08,9.57.2,13.24Zm7.86-11.42H11.09v6.32c1.17-.5,2.49-1.06,3.55-1.62a10.87,10.87,0,0,0-2.26-2.13c-.09-.06-.14-.11-.14-.14s0-.06.14-.06c1.09,0,4.84,1.21,4.84,3.25a.91.91,0,0,1-.81,1c-.34,0-.7-.25-1-.81a9.14,9.14,0,0,0-.5-.78,51.64,51.64,0,0,1-5.94,4c-.2.11-.25.36-.42.36a5.47,5.47,0,0,1-1.6-1.68s0,0,.12,0a6.15,6.15,0,0,0,1.82-.48c.19-.08.42-.17.67-.25,0-1.51,0-4.71,0-7.7,0-7.7,0-8.35-.28-9.74a.75.75,0,0,0,0-.17c0-.06,0-.09.05-.09a10.61,10.61,0,0,1,2.38,1.23l.06,0h1.93a.61.61,0,0,0,.37-.25c.28-.42.53-.64.72-.64s2,.89,2,1.56c0,.29-.33.45-.58.62-.42.28-.45.36-.45,1.63,0,1.54.08,5,.17,6.8v0A.94.94,0,0,1,15,81a.7.7,0,0,1-.73-.78ZM22,79.1c-.11.45-.23.87-.37,1.32a5.8,5.8,0,0,1,.68.25c.33.14.5.28.5.42s-.17.31-.5.5-.4.28-.42,1c-.06,1.13-.12,3.08-.12,4.82,0,2.66,0,2.66,1.4,2.66,2,0,2.13-.53,2.64-3.89a.79.79,0,0,1,.05-.23c.14,0,.25,2.75.67,3a1.05,1.05,0,0,1,.51.84c0,.84-1.32,1.71-3.84,1.71s-2.8-.93-2.8-2v-.17c0-.64.11-4.84.11-5.91-3.5,7.84-9.77,8.49-9.88,8.49s-.14,0-.14,0,.34-.31.7-.45c5.24-2,8.06-7,9.41-12.32a26.66,26.66,0,0,0-3.64.23h0c-.31,0-1.06-.9-1.06-1.24.56.09,1.26.14,2,.2,0-.81,0-1.15,0-1.93V75.12c0-1.79,0-3.55-.11-4.33l-.56.08h0c-.28,0-1.06-1-1.06-1.32a38.25,38.25,0,0,0,5.76.39h1a.54.54,0,0,0,.34-.22s.7-1.23,1-1.23c.06,0,.12,0,.14,0,.28.14,1.77,1.12,1.77,1.73,0,.2-.11.37-.53.37H23.74c.23.08.34.19.34.28s-.2.31-.45.42c-.47.22-.45.28-.53,1.09a50.19,50.19,0,0,1-.92,6l.61,0a.54.54,0,0,0,.34-.25c.22-.39.84-1.32,1.2-1.32.56,0,2.21,1.46,2.21,2,0,.17-.11.28-.53.28Zm-7.73-4.56c0-1.32,0-2.5-.06-3.2a.31.31,0,0,0-.33-.36H11.68a.92.92,0,0,1-.14.14c-.45.36-.45.36-.45,3.42ZM14.22,79c0-1.07.06-2.41.06-3.7H11.09V79Zm7.37-7.34a10.29,10.29,0,0,0,0-1c-.56,0-1.43,0-2.3,0,.26.06.59.12.59.34a.39.39,0,0,1-.25.33c-.11.06-.2.14-.2.48,0,1.37,0,2.52,0,3.75,0,.87,0,1.77,0,2.77.53,0,1,0,1.4,0A34.63,34.63,0,0,0,21.59,71.65Zm-2.77,44.86c.19,0,.25.17.25.25s-.17.31-.42.42c-.42.17-.34.25-.7,1.34A10.41,10.41,0,0,1,17,120.6c.76.19,6.84,1.76,6.84,4.42,0,.56-.28,1-.76,1a2.33,2.33,0,0,1-1.6-1,13.31,13.31,0,0,0-5.2-3.33C13.16,125.52,7.48,126,2.66,126c-1.2,0-1.88,0-1.88-.2s.34-.19.76-.22c4.37-.2,10.33-.81,13.24-4.45a21.13,21.13,0,0,0-4.76-.87c-1,2-1.12,2.27-2.07,2.27-.42,0-.78-.2-.78-.56a.93.93,0,0,1,.19-.53,28.94,28.94,0,0,0,2.69-4.93c-1.85,0-5.32.08-7.5.31h0c-.5,0-1.29-1-1.29-1.43v0c2.61.31,7.11.42,9.1.45l.09-.23a11.81,11.81,0,0,0,.72-2.88c0-.22,0-.28.06-.28s2.91.53,2.91,1.2c0,.2-.22.4-.67.51-.67.14-.7.25-1.06,1-.12.22-.2.44-.31.67h9.57a.58.58,0,0,0,.48-.25c1.06-1.52,1.26-1.71,1.57-1.71a.36.36,0,0,1,.17,0c.95.33,2.49,1.84,2.49,2.29,0,.17-.14.34-.62.34Zm1.62-4V112H7v.42a1,1,0,0,1-1.06.81c-.42,0-.79-.2-.79-.67v-.09a40.39,40.39,0,0,0,.23-4.11A18.9,18.9,0,0,0,5,105.53c0-.08,0-.11,0-.17s0,0,.06,0a10.23,10.23,0,0,1,2.58,1.09l0,0h2.8v-.17a17.18,17.18,0,0,0-.11-2.83c-1.82,0-5,.09-7.17.31h0c-.51,0-1.29-1-1.29-1.43v0c2.88.34,7.73.45,9.35.45h9.55a.57.57,0,0,0,.47-.25c1.07-1.51,1.26-1.71,1.57-1.71a.34.34,0,0,1,.17,0c.95.34,2.49,1.85,2.49,2.3,0,.16-.14.33-.61.33H17.61a.27.27,0,0,1,.17.23c0,.16-.25.33-.56.42s-.22.25-.22.53c0,.67,0,1.26,0,1.82h2.85a.42.42,0,0,0,.37-.17c.19-.2.42-.48.59-.62a.51.51,0,0,1,.3-.11c.17,0,2.16.93,2.16,1.6,0,.28-.36.47-.67.64s-.51.34-.51,1.4.09,2.13.17,3.14a1,1,0,0,1-1,1,.69.69,0,0,1-.76-.73Zm-10-1.2c0-1.26,0-3,0-4.14H7.59a2.72,2.72,0,0,1-.25.16c-.4.26-.37.14-.4.73v.9c0,.75,0,1.57,0,2.35Zm1.31,5.21c-.45,1-1,2.15-1.48,3.27h.39a26.41,26.41,0,0,1,4.76.45,9.18,9.18,0,0,0,1.15-3.72Zm3.7-10.25a18.66,18.66,0,0,0-.11-2.83H12.63a.27.27,0,0,1,.17.23c0,.16-.26.33-.56.42s-.23.25-.23.53c0,.67,0,1.26,0,1.82h3.45Zm-.06,5c0-1.26.06-3,.06-4.14H12c0,1.28,0,2.46,0,4.14Zm5.1,0c0-.73,0-1.37,0-2s0-1.23-.06-1.87a.36.36,0,0,0-.34-.28H17v4.14Z"/></g></g></svg>