<svg xmlns="http://www.w3.org/2000/svg" viewBox="0 0 27.08 526.54"><defs><style>.cls-1{fill:#333434;}</style></defs><g id="レイヤー_2" data-name="レイヤー 2"><g id="レイヤー_2-2" data-name="レイヤー 2"><path class="cls-1" d="M12.52,16.3c.11.47.25,1,.42,1.48a1.59,1.59,0,0,1,.08.45,1,1,0,0,1-.87,1.12c-.33,0-.73-.34-.92-1.18,0-.11,0-.25-.06-.36C10,19,7.78,20.92,6,20.92a1.77,1.77,0,0,1-1.79-2c0-3.22,4.73-7.56,7-9.1.14-1.29.28-2.52.39-3.59a11.59,11.59,0,0,1-2.07.25C6.3,6.52,6.24,4,6.24,3.86s0-.16.12-.16a.9.9,0,0,1,.36.14,6.33,6.33,0,0,0,3.42,1.28,6.26,6.26,0,0,0,1.59-.22,14,14,0,0,0,.11-1.4c0-.39,0-.73,0-1,0-1-.14-1.43-.92-1.51-.25,0-.51-.11-.51-.31a1.08,1.08,0,0,1,1-.67c.2,0,2,.34,2,1.88a13.69,13.69,0,0,1-.25,1.62c-.06.34-.09.67-.14,1A26.76,26.76,0,0,0,15.6,3.42c.42-.23.84-.59,1.2-.73a1.57,1.57,0,0,1,.62-.11c.53,0,.95.28.95.67s-.2.56-.65.81A23.71,23.71,0,0,1,12.85,6c-.19,1.07-.39,2.16-.53,3.31A11.48,11.48,0,0,1,15.93,8a1.11,1.11,0,0,0-.39-1c-.22-.17-.31-.31-.31-.4s.06-.11.2-.11a1.6,1.6,0,0,1,1.51,1.37h.28A6.51,6.51,0,0,1,24,14.34c0,6.88-9.68,9.71-12.62,9.71-.23,0-.31,0-.31-.08s.5-.37,1.59-.67c4.2-1.21,9.5-4.29,9.5-9a5.32,5.32,0,0,0-5.27-5.4C16.72,10,15.23,13.1,12.52,16.3Zm-1.6-1.68c0-1.24.08-2.52.2-3.81-3.39,2.41-5.41,5.88-5.41,7.47a.81.81,0,0,0,.87.9c1.46,0,4.28-2.83,4.4-2.94C11,15.71,10.92,15.18,10.92,14.62Zm1.32-4.43c-.06.76-.12,1.51-.12,2.27s.06,1.54.14,2.35A17.94,17.94,0,0,0,15.79,8.9,9.62,9.62,0,0,0,12.24,10.19ZM15,54.94c3.41-.7,4.79-3,4.79-5a4.34,4.34,0,0,0-4.57-4.29c-2,0-4.37.84-6.16,4-.25.45-.7,1.45-.89,1.73A1.58,1.58,0,0,1,7,52.11a.78.78,0,0,1-.78-.84c0-.45.25-1,2.29-3.45,1.12-1.31,6.28-8.4,6.75-9.15a1.6,1.6,0,0,0,.28-.7c0-.14,0-.51-.73-.51-1.34,0-2.07,2.58-3.89,2.58a1.59,1.59,0,0,1-1.76-1.6c0-.22,0-.44.22-.44a1.89,1.89,0,0,1,.53.16,2.11,2.11,0,0,0,.73.12,1.81,1.81,0,0,0,1.15-.4,6.85,6.85,0,0,1,3.84-1.7c1.31,0,2.43,1,2.43,1.65s-.5,1-1.09,1.43c-2.27,1.7-5.8,6.63-5.8,6.72h0s.06,0,.14-.06a8.55,8.55,0,0,1,4.45-1.29,5.4,5.4,0,0,1,5.8,5.21c0,3.16-2.94,6.3-7.73,6.3-2,0-4.39-1.06-4.39-2.83,0-1.26,1.28-2.07,2.63-2.07a2.93,2.93,0,0,1,3,2.83,2.5,2.5,0,0,1-.16.89Zm-1.46-.87a1.87,1.87,0,0,0-1.82-1.91c-1.17,0-1.31.82-1.31,1.12,0,1,1.54,1.66,2.91,1.77A2.08,2.08,0,0,0,13.55,54.07Zm-2,21.53a4.76,4.76,0,0,1,1.68-.36c1.54,0,2.86,1,2.86,4.67,0,5.83-3.08,8.85-5.94,8.85a3,3,0,0,1-1-.17c-1.24-.39-.7-1.43-1-2.46a4.61,4.61,0,0,1-.22-.95c0-.09,0-.12,0-.12s.37.26.73.76a2.49,2.49,0,0,0,2,1.12c2.38,0,4.06-4,4.06-7.59,0-1.9-.45-3.22-1.63-3.22a4.07,4.07,0,0,0-2.1,1c-1.34,3.2-3.58,7.68-5.15,10.59A2.6,2.6,0,0,1,4,89.21a.57.57,0,0,1-.62-.65,3.56,3.56,0,0,1,.87-1.87,55.82,55.82,0,0,0,5.57-9.21,12,12,0,0,1-3.5,1.2,2.05,2.05,0,0,1-2.18-2c0-.93.17-1,.22-1s.34.25.53.53a2.09,2.09,0,0,0,1.74.62,11.07,11.07,0,0,0,3.75-.73A12.16,12.16,0,0,0,10.86,73c0-.9-.22-1.54-.89-1.65-.34-.06-.62-.2-.62-.4,0-.39,1.18-1,1.77-1,.39,0,1.45.14,1.45,1.77a14.29,14.29,0,0,1-.89,3.64Zm11.57,7.28a2.16,2.16,0,0,0-1-.14c-.42,0-.93,0-1.54,0s-.87-.06-.87-.14.34-.2.81-.28c2-.39,3.11-.87,3.11-2.38,0-2.16-2.24-2.86-3.7-3.45-.61-.22-.92-.36-.92-.44s.14-.06.36-.06c3.73,0,6.19,2,6.19,4.4,0,1.42-.87,2.6-1.87,2.6A1.19,1.19,0,0,1,23.16,82.88Zm-.37-8.06a9.05,9.05,0,0,0-2.57-1.74c-.23-.08-.45-.17-.45-.25s.75-.28,1.51-.28c2.35,0,3,1.06,3,1.73a.82.82,0,0,1-.76.87A1,1,0,0,1,22.79,74.82ZM24.28,71c1.7,0,2.8.73,2.8,1.65a.83.83,0,0,1-.79.9,1.06,1.06,0,0,1-.7-.31A9.38,9.38,0,0,0,23,71.54c-.22-.08-.45-.14-.45-.22A3.8,3.8,0,0,1,24.28,71Zm-8.46,35.76a3.19,3.19,0,0,1,1.51-.59c.31,0,.73.08.73.64,0,.95-2.18,1.63-2.74,1.77-.09,1-.12,2-.12,3v.93c1.6-.53,2.33-1,2.33-1.43s-.67-.9-1.21-1.32a.15.15,0,0,1-.08-.14s0,0,.11,0a.4.4,0,0,1,.2,0,8.54,8.54,0,0,0,2.41.76c.61,0,1,.31,1,.73,0,1.31-3.62,2.6-4.68,2.91.06,1,.17,2,.25,3s.25,1.73.28,2.6c2.86,1,4.17,2.8,4.17,3.61a.9.9,0,0,1-.84,1,1.31,1.31,0,0,1-1.06-.72,7.41,7.41,0,0,0-2.35-2.19,5.43,5.43,0,0,1-5,3.53c-2.22,0-3.53-1.54-3.53-2.86,0-2.13,3.47-2.85,5.63-2.85a7.76,7.76,0,0,1,1.37.11c0-.7-.06-1.46-.09-2.24s-.08-1.71-.08-2.61a14.52,14.52,0,0,1-3.3.4c-3.59,0-4.46-1.85-4.46-2s.09-.14.2-.14a2.44,2.44,0,0,1,.67.17,10,10,0,0,0,3.33.56,15.19,15.19,0,0,0,3.56-.45c0-1.37.06-2.74.14-4.06a5,5,0,0,1-.67,0c-3.45,0-4.23-2.16-4.23-2.74,0-.12.06-.14.11-.14a1.72,1.72,0,0,1,.53.25,7.09,7.09,0,0,0,3.53,1.2,5.84,5.84,0,0,0,.7-.06l.14,0c0-.45.09-.87.14-1.29a27.4,27.4,0,0,0,.25-2.94c0-1-.25-1.12-.72-1.29s-.65-.25-.65-.42a1.59,1.59,0,0,1,1.18-.75,2.58,2.58,0,0,1,1.9,2.07A7.47,7.47,0,0,1,16,104.1a15.94,15.94,0,0,0-.56,2.8Zm-4,13.38c-.72,0-3.69.14-3.69,1.62,0,.65.81,1.43,2.27,1.43a3.81,3.81,0,0,0,3.69-2.69A7.81,7.81,0,0,0,11.84,120.12Zm4,20.22a3.19,3.19,0,0,1,1.51-.59c.31,0,.73.08.73.64,0,1-2.18,1.63-2.74,1.77-.09,1-.12,2-.12,3v.93c1.6-.53,2.33-1,2.33-1.43s-.67-.9-1.21-1.32a.15.15,0,0,1-.08-.14s0,0,.11,0a.4.4,0,0,1,.2,0,8.54,8.54,0,0,0,2.41.76c.61,0,1,.31,1,.73,0,1.31-3.62,2.6-4.68,2.91.06,1,.17,2,.25,3s.25,1.73.28,2.6c2.86,1,4.17,2.8,4.17,3.61a.9.9,0,0,1-.84,1,1.31,1.31,0,0,1-1.06-.72,7.41,7.41,0,0,0-2.35-2.19,5.43,5.43,0,0,1-5,3.53c-2.22,0-3.53-1.54-3.53-2.86,0-2.13,3.47-2.85,5.63-2.85a7.76,7.76,0,0,1,1.37.11c0-.7-.06-1.46-.09-2.24s-.08-1.71-.08-2.6a14.88,14.88,0,0,1-3.3.39c-3.59,0-4.46-1.85-4.46-2s.09-.14.2-.14a2.44,2.44,0,0,1,.67.17,10,10,0,0,0,3.33.56,15.19,15.19,0,0,0,3.56-.45c0-1.37.06-2.74.14-4.06a5,5,0,0,1-.67,0c-3.45,0-4.23-2.16-4.23-2.74,0-.12.06-.14.11-.14a1.72,1.72,0,0,1,.53.25,7.09,7.09,0,0,0,3.53,1.2c.23,0,.45,0,.7,0l.14,0c0-.45.09-.87.14-1.29a27.17,27.17,0,0,0,.25-2.94c0-1-.25-1.12-.72-1.29s-.65-.25-.65-.42a1.59,1.59,0,0,1,1.18-.75,2.58,2.58,0,0,1,1.9,2.07A7.47,7.47,0,0,1,16,137.7a15.94,15.94,0,0,0-.56,2.8Zm-4,13.38c-.72,0-3.69.14-3.69,1.62,0,.65.81,1.43,2.27,1.43a3.8,3.8,0,0,0,3.69-2.69A7.81,7.81,0,0,0,11.84,153.72Zm5.41,37.1c-1.32,0-5.88-.48-5.88-7.08,0-3.45,1.2-7.45,2.69-9,.19-.2.33-.34.33-.39a0,0,0,0,0,0,0,45.51,45.51,0,0,0-6.24,2.77,4.15,4.15,0,0,1-1.85.42C5,177.52,3.86,177,3.86,176c0-.12,0-.28.23-.28a5,5,0,0,1,.59.11,10.72,10.72,0,0,0,1.37.14,5.26,5.26,0,0,0,1.62-.28c1.32-.45,6.22-3.08,10.47-4.2a8.33,8.33,0,0,1,2.27-.56h.14c2.58,0,3,.89,3,1.34s-.42.87-1.35.87a5.09,5.09,0,0,1-.64-.06,9.17,9.17,0,0,0-1.51-.11,9.69,9.69,0,0,0-4,.79c-2,1.09-3.5,5.43-3.5,9,0,5.71,3.64,5.94,4.48,5.94a5.44,5.44,0,0,0,1.65-.28,2.15,2.15,0,0,1,.73-.12c.75,0,1.26.42,1.26.93C20.64,190.43,18.37,190.82,17.25,190.82ZM21,178.47a8.93,8.93,0,0,0-2.41-2c-.22-.11-.42-.19-.42-.28a2.63,2.63,0,0,1,1.09-.16c2.24,0,3.31,1,3.31,1.9a.89.89,0,0,1-.81.95A1,1,0,0,1,21,178.47Zm3-1.37a9.79,9.79,0,0,0-2.5-1.88c-.22-.11-.44-.19-.44-.28a2.33,2.33,0,0,1,1.23-.22c1.4,0,3.22.5,3.22,1.85a.83.83,0,0,1-.79.89A1.05,1.05,0,0,1,24,177.1ZM11,224.22c-1.57,0-5.57.06-8.06.31h0c-.53,0-1.32-1.09-1.32-1.45,2.89.33,7.93.44,9.55.44h1.68c0-1.84.09-4.48.09-7.14h-.73a55.17,55.17,0,0,0-5.83.31h0c-.48,0-1.26-1.09-1.26-1.45a66.63,66.63,0,0,0,7.25.44h.59c0-2.12,0-4.22,0-6H7.39c-2.94,4.87-5.65,6.58-5.88,6.58h0c0-.08.14-.25.42-.56,2.33-2.43,5.77-9.32,5.77-12.21,0-.08,0-.14.09-.14s3.1.82,3.1,1.54c0,.23-.22.42-.92.56-.42.09-.5.26-.76.84A29.76,29.76,0,0,1,7.81,209h5.1a58.52,58.52,0,0,0-.39-7.39.45.45,0,0,1,0-.17c0-.05,0-.05,0-.05.59,0,3.45.42,3.45,1.06a.79.79,0,0,1-.45.59c-.62.42-.76.08-.81,1.4,0,.95-.09,2.6-.09,4.56h5a.54.54,0,0,0,.42-.25c1-1.34,1.37-1.85,1.62-1.85a5.25,5.25,0,0,1,2.58,2.44c0,.19-.14.36-.59.36h-9v6h3.28a.56.56,0,0,0,.42-.25c1.2-1.54,1.34-1.71,1.54-1.71a5.55,5.55,0,0,1,2.49,2.3c0,.17-.11.36-.56.36H14.64c0,2.75,0,5.35.06,7.14h6.41a.59.59,0,0,0,.48-.25c.28-.47,1.29-1.87,1.68-1.87.75,0,2.69,2,2.69,2.49,0,.17-.14.33-.62.33Zm.67,23.92c-1.9,0-3.27-.62-4-2.66a1.18,1.18,0,0,1-.11-.48c0-.08,0-.14.11-.14a.93.93,0,0,1,.47.28,6.12,6.12,0,0,0,4.12,1.57,13.41,13.41,0,0,0,4-.73c-.42-1-.84-2-1.32-3a6.41,6.41,0,0,1-1.82.28c-2.94,0-4.34-2-4.34-2.77,0-.08,0-.11.08-.11a2.37,2.37,0,0,1,.56.25,7.91,7.91,0,0,0,3.7,1.34,4.27,4.27,0,0,0,1.18-.19,18.48,18.48,0,0,0-3.11-4.26,2.52,2.52,0,0,0-1.77-.92c-.22,0-.33-.14-.33-.28s.45-.81,1.43-.81c1.48,0,2.21.89,4.59,6a3,3,0,0,0,.67-.37,3,3,0,0,1,1.4-.67.62.62,0,0,1,.62.65c0,.53-.62,1.09-2.1,1.65.44,1,.89,2,1.34,2.91,1-.39,1.43-.67,1.43-1s-.17-.59-.81-1.06c-.34-.26-.51-.4-.51-.48s0-.06.09-.06a3.79,3.79,0,0,1,.86.31,8.49,8.49,0,0,0,1.91.65c.59,0,.95.28.95.67,0,.75-1.85,1.68-3.33,2.21a36.69,36.69,0,0,0,1.79,3.22,3.29,3.29,0,0,1,.59,1.79,1.84,1.84,0,0,1-1.68,2c-.45,0-.51-.28-.67-.5-.34-.48-2.86-1.18-4.9-1.18-2.72,0-3.48,1.6-3.48,2.3s.84,2.57,4,2.57a7.52,7.52,0,0,0,2-.28,1.61,1.61,0,0,1,.48-.08,1,1,0,0,1,1.12.92c0,.67-1,1.21-3.08,1.21-4.28,0-5.71-2.58-5.71-4,0-.59.22-3.3,5.74-3.3,1.57,0,3.11.17,3.78.19h0a.62.62,0,0,0,.7-.64,1.7,1.7,0,0,0-.19-.76c-.48-1-.93-2-1.37-3.13A20.2,20.2,0,0,1,11.7,248.14Zm3.31,42c3.41-.7,4.79-3,4.79-5a4.34,4.34,0,0,0-4.57-4.29c-2,0-4.37.84-6.16,4-.25.45-.7,1.45-.89,1.73a1.58,1.58,0,0,1-1.21.79.78.78,0,0,1-.78-.84c0-.45.25-1,2.29-3.45,1.12-1.31,6.28-8.4,6.75-9.15a1.6,1.6,0,0,0,.28-.7c0-.14,0-.51-.73-.51-1.34,0-2.07,2.58-3.89,2.58a1.59,1.59,0,0,1-1.76-1.6c0-.22,0-.44.22-.44a1.89,1.89,0,0,1,.53.16,2.11,2.11,0,0,0,.73.12,1.81,1.81,0,0,0,1.15-.4,6.85,6.85,0,0,1,3.84-1.7c1.31,0,2.43,1,2.43,1.65s-.5,1-1.09,1.43c-2.27,1.7-5.8,6.63-5.8,6.72h0s.06,0,.14-.06a8.55,8.55,0,0,1,4.45-1.29,5.4,5.4,0,0,1,5.8,5.21c0,3.16-2.94,6.3-7.73,6.3-2,0-4.39-1.06-4.39-2.83,0-1.26,1.28-2.07,2.63-2.07a2.93,2.93,0,0,1,3,2.83,2.5,2.5,0,0,1-.16.89Zm-1.46-.87a1.87,1.87,0,0,0-1.82-1.91c-1.17,0-1.31.82-1.31,1.12,0,1,1.54,1.66,2.91,1.77A2.08,2.08,0,0,0,13.55,289.27Zm.2,17.08c-.23,15.87-11.54,19.79-12.07,19.79-.06,0-.08,0-.08-.05s.28-.37.64-.56c6.58-3.64,9.55-12.24,9.55-19.29v-.12a20,20,0,0,0-.25-3.19.27.27,0,0,1,0-.14.05.05,0,0,1,.05-.05c.34,0,3.62.5,3.62,1.28q0,.25-.42.51v.56c0,7.31,4.14,16.83,12,19.23.17.06.23.09.23.14,0,.23-2.72.28-3.48,1.07a.44.44,0,0,1-.3.14c-.65,0-8.88-6.11-8.88-19.21,0-.56,0-1.12.06-1.71C13.89,305,13.78,305,13.75,306.35Zm-2.16,38a4.76,4.76,0,0,1,1.68-.36c1.54,0,2.86,1,2.86,4.67,0,5.83-3.08,8.85-5.94,8.85a3,3,0,0,1-1-.17c-1.24-.39-.7-1.43-1-2.46A4.61,4.61,0,0,1,7.9,354c0-.09,0-.12,0-.12s.37.26.73.76a2.49,2.49,0,0,0,2,1.12c2.38,0,4.06-3.95,4.06-7.59,0-1.9-.45-3.22-1.63-3.22a4.07,4.07,0,0,0-2.1.95c-1.34,3.2-3.58,7.68-5.15,10.59A2.6,2.6,0,0,1,4,358a.57.57,0,0,1-.62-.65,3.56,3.56,0,0,1,.87-1.87,55.82,55.82,0,0,0,5.57-9.21,12,12,0,0,1-3.5,1.2,2.05,2.05,0,0,1-2.18-2c0-.93.17-1,.22-1s.34.25.53.53a2.09,2.09,0,0,0,1.74.62,11.07,11.07,0,0,0,3.75-.73,12.16,12.16,0,0,0,.53-3.08c0-.9-.22-1.54-.89-1.65-.34-.06-.62-.2-.62-.4,0-.39,1.18-1,1.77-1,.39,0,1.45.14,1.45,1.77a14.29,14.29,0,0,1-.89,3.64Zm11.57,7.28a2.16,2.16,0,0,0-1-.14c-.42,0-.93,0-1.54,0s-.87-.06-.87-.14.34-.2.81-.28c2-.39,3.11-.87,3.11-2.38,0-2.16-2.24-2.86-3.7-3.45-.61-.22-.92-.36-.92-.44s.14-.06.36-.06c3.73,0,6.19,2,6.19,4.4,0,1.42-.87,2.6-1.87,2.6A1.19,1.19,0,0,1,23.16,351.68Zm-.37-8.06a9.05,9.05,0,0,0-2.57-1.74c-.23-.08-.45-.17-.45-.25s.75-.28,1.51-.28c2.35,0,3,1.06,3,1.73a.82.82,0,0,1-.76.87A1,1,0,0,1,22.79,343.62Zm1.49-3.84c1.7,0,2.8.73,2.8,1.65a.83.83,0,0,1-.79.9,1.06,1.06,0,0,1-.7-.31A9.38,9.38,0,0,0,23,340.34c-.22-.08-.45-.14-.45-.22A3.8,3.8,0,0,1,24.28,339.78ZM4.84,376.94c-2.71,3.52-4.67,4.7-4.78,4.7a.06.06,0,0,1-.06-.06.82.82,0,0,1,.25-.36,36.53,36.53,0,0,0,6.19-9.91A10.35,10.35,0,0,0,7,369.26c0-.14,0-.19.09-.19s2.77,1,2.77,1.59c0,.2-.23.4-.84.56-.42.12-.48.17-.79.7-.64,1.1-1.34,2.16-2,3.2,1.09.22,1.51.33,1.51.61s-.22.34-.59.51c-.58.28-.61.28-.64,1.17-.08,2.3-.14,5.55-.14,8.82,0,2.21,0,4.43.08,6.36a1.17,1.17,0,0,1-1.23,1.17c-.45,0-.84-.28-.84-.95v-.14c.34-3.92.53-9.69.53-13.3v-2.43Zm17.73,14.11H11.2v1.54c0,.53-.59.89-1.09.89a.66.66,0,0,1-.73-.72v-.09c.17-2.74.2-8.09.2-10.81a25.91,25.91,0,0,0-.34-5.09c0-.09,0-.11,0-.17s0-.06.06-.06a11.62,11.62,0,0,1,2.57,1.15l0,0H14c0-1.76,0-3.08,0-3.44,0-.65,0-1.15-.08-1.63-1.21,0-2.61.09-3.87.23h0c-.44,0-1.14-1-1.14-1.32a71.54,71.54,0,0,0,7.39.39h5.65a.53.53,0,0,0,.37-.22c.87-1.37,1.17-1.54,1.37-1.54a.34.34,0,0,1,.17,0A4.18,4.18,0,0,1,26,372.29c0,.17-.14.33-.59.33H20.3c.17.06.25.14.25.26s-.14.22-.36.33c-.42.2-.42.2-.42,4.51h2.32c.14,0,.17-.06.25-.2.23-.3.54-.72.82-.72s2.24,1,2.24,1.51c0,.28-.37.47-.65.64-.56.31-.56.31-.56,2.52,0,3,.11,8.71.23,10.86v.06a1.05,1.05,0,0,1-1.07,1,.74.74,0,0,1-.78-.81Zm-8.6-.73c0-1.76.06-7.67.06-11.84H11.76a1.81,1.81,0,0,1-.25.16c-.25.14-.31.12-.31.82,0,1,0,4,0,7.14v3.72Zm4.23,0c0-1.85.06-7.73.06-11.84H15.54c0,2.12,0,4.7,0,6.91s0,4.12,0,4.93Zm.06-12.6c0-1.76,0-3.08,0-3.44,0-.65,0-1.15-.09-1.66H16.07c.17.09.25.17.25.26s-.16.3-.36.36c-.42.17-.42.28-.42,4.48Zm4.34,12.6c0-2.07,0-4.59,0-6.78s0-4.06-.05-4.76c0-.08-.09-.3-.28-.3H19.77c0,2.1,0,4.64,0,6.85s0,4.12,0,5ZM5.32,410.62C2.8,413.92.53,415.55.2,415.55c-.06,0-.06,0-.06-.06a1,1,0,0,1,.28-.39,38,38,0,0,0,6.66-10.47,8.66,8.66,0,0,0,.56-2.07c0-.14,0-.23.09-.23s2.85,1.09,2.85,1.74c0,.22-.25.42-.89.56-.42.11-.48.17-.81.7-.79,1.29-1.54,2.52-2.36,3.67,1.38.28,1.63.33,1.63.61s-.23.34-.59.51c-.59.28-.64.28-.67,1.17-.09,2.1-.11,4.93-.11,7.81,0,2.38,0,4.82.08,7a1.18,1.18,0,0,1-1.23,1.17c-.45,0-.84-.28-.84-.95v-.14c.33-3.92.53-9.35.53-12.91v-2.63Zm15.57,10.7H16v1.12c0,.44-.56.75-1,.75a.59.59,0,0,1-.67-.59v-.08c.14-1.46.17-5.85.17-8.37a25.19,25.19,0,0,0-.31-5.07.51.51,0,0,1,0-.2.07.07,0,0,1,.08-.08,11.15,11.15,0,0,1,2.38,1.12l0,0H17c.05-.76.08-1.82.14-2.8h-.48a57.88,57.88,0,0,0-6.21.31h0c-.48,0-1.32-1.1-1.32-1.46a66.44,66.44,0,0,0,7.73.45h.34v-.17c0-.28,0-.73,0-1.2a11.06,11.06,0,0,0-.19-2.41,1.06,1.06,0,0,0,0-.14c0-.09.06-.09.14-.09.25,0,2.86.34,2.86.9,0,.22-.28.48-.7.67s-.4.31-.56,2.44h2.6a.67.67,0,0,0,.48-.28c1-1.46,1.28-1.6,1.42-1.6.34,0,2.5,1.51,2.5,2.21,0,.2-.12.37-.59.37H18.62c-.06,1-.11,2-.14,2.8h1.85a.43.43,0,0,0,.36-.23,3,3,0,0,1,.53-.58c.09,0,.14-.09.23-.09.42,0,2.07.87,2.07,1.43,0,.28-.28.45-.53.59-.48.31-.51.45-.51,1.76,0,2,.09,7.31.17,9v.06a1,1,0,0,1-1,.89.7.7,0,0,1-.75-.75Zm-9.24,3.94,0,.84a1,1,0,0,1-1,1,.77.77,0,0,1-.79-.84v-.08c.12-1.79.17-7.45.17-10.86a23.85,23.85,0,0,0-.22-5,.45.45,0,0,1,0-.17c0-.08,0-.08.11-.08.28,0,2.77.31,2.77.81a.6.6,0,0,1-.33.45c-.53.28-.65.36-.7,1.09s-.06,2.49-.06,4.59c0,2.58,0,5.58.06,7.56h10a.6.6,0,0,0,.47-.28c1-1.48,1.37-1.62,1.57-1.62a.42.42,0,0,1,.2,0c.84.28,2.43,1.71,2.43,2.24,0,.17-.14.33-.64.33Zm4.9-14.61-.2.14c-.33.22-.39.31-.39,2.57h5c0-1.09,0-2-.05-2.43a.3.3,0,0,0-.31-.28ZM16,414v2.77h5c0-.95,0-1.91,0-2.77Zm0,3.44c0,1.12,0,2.24,0,3.16h4.9c0-.86,0-2,0-3.16ZM4.76,453.43c0-3.13,1.12-5.71,1.57-8a9.78,9.78,0,0,0,.19-1.91,5.93,5.93,0,0,0-.61-2.88c-.11-.23-.34-.42-.34-.53s.2-.17.56-.17c.9,0,2.16,1.43,2.16,3.3a7.72,7.72,0,0,1-.76,2.89A16.65,16.65,0,0,0,6,452c0,1.09.26,1.9.45,1.9s.23-.11.37-.45c.75-1.68,2.35-5.15,2.77-5.15,0,0,.08,0,.08.11a1.64,1.64,0,0,1-.14.51c-.81,2-2,5.48-2,7.39a6.41,6.41,0,0,0,.19,1.59,2.66,2.66,0,0,1,.06.45.8.8,0,0,1-.76.9C5.32,459.23,4.76,455,4.76,453.43ZM19,458.08c-5.32,0-6.18-3-6.18-3.61,0-.17,0-.25.14-.25s.33.16.56.5c.58.84,2.49,1.43,4.59,1.43a10.73,10.73,0,0,0,1.57-.11,11.94,11.94,0,0,1,2.07-.51h.17c.92,0,1.42.42,1.42.9C23.32,457.74,20.55,458.08,19,458.08Zm-1.62-12.82c-3.84,0-4.2-2.27-4.2-2.47s0-.11.08-.11a1.21,1.21,0,0,1,.48.22,5.56,5.56,0,0,0,2.8.68,13.29,13.29,0,0,0,2.32-.26c.4-.08.7-.28,1.07-.36a1.94,1.94,0,0,1,.59-.06c.78,0,1.26.4,1.26.84C21.76,445.06,18.28,445.26,17.36,445.26ZM8,485.86a2.21,2.21,0,0,1-1.77,1.4.57.57,0,0,1-.61-.65,2.54,2.54,0,0,1,.56-1.4,48.1,48.1,0,0,0,5-8.57c0-.11.11-.22.14-.33a7.33,7.33,0,0,1-1.79.25A3.23,3.23,0,0,1,6.05,474c0-.11,0-.14.11-.14a1.45,1.45,0,0,1,.53.26,5.48,5.48,0,0,0,2.89.92,8.52,8.52,0,0,0,2.07-.31,11.89,11.89,0,0,0,.08-1.29c0-1.79-.45-1.82-.7-1.82-.45,0-.7-.08-.7-.28a1.16,1.16,0,0,1,1.12-.84,1.77,1.77,0,0,1,1.74,1.94c2.1.39,2.35.47,2.35,1,0,.79-1.37,1.94-3.11,2.55C12.15,476.73,11.82,477.57,8,485.86Zm5,7.95a3.56,3.56,0,0,1-3.67-3c0-1.65,2.1-2.63,4.9-2.63a10,10,0,0,1,2.05.2c0-1.18-.14-2.47-.14-3.5,0-2.41.58-3.78,2.66-5.13.92-.61,1.7-1.26,1.7-1.9,0-.31,0-.36-.78-1.15-.22-.22-.39-.39-.39-.47s.11-.12.36-.12c1.71,0,3.45,1.46,3.45,2.72,0,.42-.28,1.51-1.12,1.51a3.76,3.76,0,0,1-.76-.11,1.17,1.17,0,0,0-.36,0c-.87,0-3.84.28-3.84,3,0,.44.06,1,.11,1.59.09,1.15.37,2.66.42,3.92,2.33.81,4.15,2.21,4.15,3.47a1,1,0,0,1-.82,1.07c-.3,0-.64-.23-1-.79a6.21,6.21,0,0,0-2.43-2.29A4.74,4.74,0,0,1,13,493.81Zm.45-4.76c-2.05,0-3.31.81-3.31,1.62,0,1,1.43,1.49,2.55,1.49a3.38,3.38,0,0,0,3.5-2.61A8.3,8.3,0,0,0,13.47,489.05ZM13,474.24a3.48,3.48,0,0,0,.79-.51.54.54,0,0,0,.19-.42c0-.36-.44-.56-.75-.67A7.08,7.08,0,0,1,13,474.24Zm2,51.1c3.41-.7,4.79-3,4.79-5A4.34,4.34,0,0,0,15.23,516c-2,0-4.37.84-6.16,4-.25.45-.7,1.45-.89,1.73a1.58,1.58,0,0,1-1.21.79.78.78,0,0,1-.78-.84c0-.45.25-1,2.29-3.45,1.12-1.31,6.28-8.4,6.75-9.15a1.6,1.6,0,0,0,.28-.7c0-.14,0-.51-.73-.51-1.34,0-2.07,2.58-3.89,2.58a1.59,1.59,0,0,1-1.76-1.6c0-.22,0-.44.22-.44a1.89,1.89,0,0,1,.53.16,2.11,2.11,0,0,0,.73.12,1.81,1.81,0,0,0,1.15-.4,6.85,6.85,0,0,1,3.84-1.7c1.31,0,2.43,1,2.43,1.65s-.5,1-1.09,1.43c-2.27,1.7-5.8,6.63-5.8,6.72h0s.06,0,.14-.06A8.55,8.55,0,0,1,15.76,515a5.4,5.4,0,0,1,5.8,5.21c0,3.16-2.94,6.3-7.73,6.3-2,0-4.39-1.06-4.39-2.83,0-1.26,1.28-2.07,2.63-2.07a2.93,2.93,0,0,1,3,2.83,2.5,2.5,0,0,1-.16.89Zm-1.46-.87a1.87,1.87,0,0,0-1.82-1.91c-1.17,0-1.31.82-1.31,1.12,0,1,1.54,1.66,2.91,1.77A2.08,2.08,0,0,0,13.55,524.47Z"/></g></g></svg>