<svg xmlns="http://www.w3.org/2000/svg" viewBox="0 0 100.75 23.74"><defs><style>.cls-1{fill:#333434;}</style></defs><g id="レイヤー_2" data-name="レイヤー 2"><g id="レイヤー_2-2" data-name="レイヤー 2"><path class="cls-1" d="M6.55,8.71H1.79v2.73c0,4.37.06,9.1.11,11.28a1.1,1.1,0,0,1-1.12,1A.75.75,0,0,1,0,22.91v-.08C.23,18.9.34,12.84.34,8c0-1.36,0-2.6,0-3.7A24.55,24.55,0,0,0,0,1,.53.53,0,0,1,0,.81C0,.73,0,.7.08.7A10.86,10.86,0,0,1,2.5,1.77l.13.1H6a.45.45,0,0,0,.36-.21c.13-.2.52-.59.7-.59s2,1,2,1.43c0,.23-.31.39-.54.54-.44.29-.47.47-.47,1.07v.34c0,1.24.1,3.4.16,4.36a1,1,0,0,1-1,1,.64.64,0,0,1-.68-.7V8.71ZM1.85,5.54c0,.75,0,1.58,0,2.49H6.58c0-.72,0-1.61,0-2.49Zm.52-3c-.45.21-.52.34-.52,2.29H6.6c0-.75,0-1.48,0-2a.28.28,0,0,0-.28-.29Zm7.85,14.49a7.5,7.5,0,0,1-.18.75h.05c1.43.18,4.6,1,4.6,2.63a.76.76,0,0,1-.7.83c-.29,0-.6-.18-.91-.65A11.13,11.13,0,0,0,10,18c-1.11,3.28-4.55,4.19-6.57,4.19-.29,0-.42-.05-.42-.11s.26-.18.57-.23A6.15,6.15,0,0,0,8.76,17H8.53c-1.17,0-2.26.16-3.46.26H5c-.39,0-1.14-.91-1.14-1.25a35.89,35.89,0,0,0,4.73.39h.24c0-.23,0-.49,0-.75v-.5a9,9,0,0,0-.05-1c-1,0-2.42.13-3.25.21h0c-.31,0-1-.8-1-1.14a46.94,46.94,0,0,0,4.94.31h.36A14.43,14.43,0,0,0,11.52,10c0-.16,0-.21.08-.21s2,1,2,1.45c0,.16-.15.32-.52.32h-.21a.69.69,0,0,0-.52.23c-.41.36-1.24,1.14-1.89,1.69h2.13c.13,0,.18-.1.26-.23a4.33,4.33,0,0,1,.78-1,.29.29,0,0,1,.18-.08.18.18,0,0,1,.13,0c1.61.85,1.69,1.43,1.69,1.58s-.1.29-.47.29l-4.42,0c.11.06.16.11.16.19s-.13.28-.34.39-.21,0-.21.67v.47a5.43,5.43,0,0,1,0,.57H13a.39.39,0,0,0,.31-.23,5.89,5.89,0,0,1,.83-1.09c0-.06.11-.06.16-.06a.32.32,0,0,1,.18,0c.73.31,1.85,1.12,1.85,1.66,0,.16-.13.32-.5.32Zm-2.6-4.74A7.18,7.18,0,0,0,6,10.58c-.13-.1-.18-.15-.18-.21s.1-.07.31-.07h.08c1.3,0,2.94.7,2.94,1.76a.82.82,0,0,1-.76.86A.93.93,0,0,1,7.62,12.32Zm5.25-3.61v.1a.94.94,0,0,1-1,.89A.7.7,0,0,1,11.15,9v-.1c.16-1.72.19-2.79.19-3.59A22.42,22.42,0,0,0,11.05,1a.53.53,0,0,1,0-.18c0-.08,0-.11.06-.11a8.9,8.9,0,0,1,2.34,1l.13.1h3.74a.43.43,0,0,0,.36-.21c.13-.2.52-.59.71-.59S20.49,2,20.49,2.5c0,.23-.31.39-.55.54-.52.31-.52.34-.52,3.49,0,3.66.11,9.46.16,11.62,0,.41.08,2.05.08,2.42,0,2.65-2.76,3-3.12,3s-.34-.16-.5-.39c-.39-.63-3.14-1.62-3.14-1.8a.1.1,0,0,1,.07,0,2,2,0,0,1,.34,0,18.75,18.75,0,0,0,2.89.34c1.19,0,1.77-.37,1.79-1.43,0-.6,0-1.8,0-3.28,0-2.39,0-5.56-.05-8.32Zm.42-6.14c-.42.21-.45.21-.47.94,0,.29,0,.75,0,1.35h5.1c0-1,0-1.69-.05-2a.29.29,0,0,0-.29-.29Zm-.5,3c0,.73,0,1.58.05,2.49h5.1c0-.91,0-1.76,0-2.49ZM49.27,7.25C49,9.78,47.66,10.48,47,10.48a.92.92,0,0,1-1-.89,1.42,1.42,0,0,1,.6-1.06,4.84,4.84,0,0,0,2.08-3.3c0-.19.08-.29.16-.29s.28.29.36,1.66H60.22a10.42,10.42,0,0,0,1.09-4.18c-1.43.21-3.2.41-5.05.57,1.8,1,1.85,2.11,1.85,2.29a1,1,0,0,1-.86,1c-.31,0-.6-.23-.7-.83A6.55,6.55,0,0,0,55.77,3c-1.27.1-2.63.18-3.93.23,2.06.68,2.34,1.77,2.34,2.16a.91.91,0,0,1-.8,1c-.29,0-.55-.18-.73-.65a6.71,6.71,0,0,0-1.33-2.44c-.91,0-1.82,0-2.67,0-.29,0-.52-.1-.52-.23s.13-.13.44-.16a84.62,84.62,0,0,0,13-2.1A4.51,4.51,0,0,0,63,.1c.1-.07.15-.1.21-.1s0,0,.13.08c1,1,1.45,1.58,1.45,1.95,0,.18-.13.28-.34.28a1.61,1.61,0,0,1-.44-.1,1.59,1.59,0,0,0-.54-.13l-.16,0c-.47.07-1,.18-1.66.26.8.31,2.13.93,2.13,1.27,0,.18-.31.29-.57.34s-.37.05-.6.36c-.34.47-1.25,1.59-1.85,2.26h4a.86.86,0,0,0,.47-.2s.44-.52.83-.52,2.13,1.27,2.13,1.87c0,.31-.28.57-1,.6a8.6,8.6,0,0,0-3.38,1.06.85.85,0,0,1-.21.05s0,0,0,0a.33.33,0,0,1,.1-.18A8.51,8.51,0,0,0,65,7.41a.16.16,0,0,0-.18-.16Zm5.49,9.29C51.3,20.7,47,22.62,46.31,22.62c-.08,0-.13,0-.13-.05s.13-.21.44-.36c2.91-1.54,7.43-6.48,8.16-8.64-1.45-.21-1.92-.65-1.92-1.74,0-.1,0-.23,0-.36,0-.29,0-.76,0-1.2a14.48,14.48,0,0,0-.08-1.61,1.32,1.32,0,0,0,0-.16c0-.05,0-.05,0-.05S55,8.74,55,9.26c0,.2-.26.39-.44.49s-.42.34-.42,1.61c0,.68,0,1,2.55,1,3,0,3.59,0,4-2.68,0-.18.08-.29.13-.29s.08.11.13.26c.34,1.51.37,1.56.81,1.85A.57.57,0,0,1,62,12c0,.54-.68,1.3-2.73,1.53-.68.08-1.93.11-2.92.11.68.44.86.62.86.8s-.18.29-.62.29h-.29c-.28,0-.36.08-.52.34a6.29,6.29,0,0,1-.52.72h4.6a.77.77,0,0,0,.47-.18,2.64,2.64,0,0,1,.73-.39c.13,0,1.85,1,1.85,1.43,0,.18-.19.39-.58.5a1.61,1.61,0,0,0-.93.52,23.79,23.79,0,0,1-2.65,2.34,16.09,16.09,0,0,0,7.15,1.45c.83,0,1.69-.05,2.52-.13h.15c.08,0,.11,0,.11,0,0,.23-2.39,1.25-2.76,1.92-.1.21-.28.21-.52.21a14,14,0,0,1-7.59-2.83A19.74,19.74,0,0,1,48,23.61c-.26,0-.39,0-.39-.08s.29-.15.83-.26a19.75,19.75,0,0,0,8.43-3.51,8.68,8.68,0,0,1-2-3.22Zm-6.84-3.1a1.36,1.36,0,0,1,.8-1.12,6.68,6.68,0,0,0,2.71-2.44c.08-.13.13-.18.18-.18s.1.08.1.21c0,.93-.93,4.36-2.88,4.36A.86.86,0,0,1,47.92,13.44Zm7.3,3.1a7.2,7.2,0,0,0,2.27,2.7A10.16,10.16,0,0,0,60,16.69c0-.1-.08-.15-.26-.15Zm2.06-6.3a6.34,6.34,0,0,0-1.59-2.15c-.1-.11-.15-.16-.15-.19a.05.05,0,0,1,.05-.05c1,0,3.38.81,3.38,2.19a.91.91,0,0,1-.83,1C57.82,11,57.51,10.79,57.28,10.24ZM64.87,13a9,9,0,0,0-2.42-2.91q-.15-.12-.15-.15s.05-.06.1-.06c1.27,0,4.29,1.3,4.29,2.89a1,1,0,0,1-.86,1C65.52,13.78,65.13,13.55,64.87,13ZM90,12.06V14c0,1.59,0,3.12,0,3.85,0,.52.11,1.85.11,2.42,0,3-3.28,3.12-3.51,3.12a.56.56,0,0,1-.52-.34c-.42-.65-3-1.79-3-2,0,0,.05-.05.1-.05a2.11,2.11,0,0,1,.34.05,20.6,20.6,0,0,0,3.3.44c1.09,0,1.61-.36,1.66-1.46,0-.57.06-2.31.06-4.18,0-1.33,0-2.71,0-3.75H86.29c-1.45,0-5.22.06-7.56.29h0c-.49,0-1.22-1-1.22-1.35,2.68.34,7.44.41,8.94.41h2.11c0-.44,0-.78,0-1a17.17,17.17,0,0,0-.31-3.2.87.87,0,0,1,0-.2c0-.06,0-.06,0-.06s.94.16,1.84.39a17.77,17.77,0,0,0,2.73-3.79c0-.08-.05-.16-.28-.16H89c-2.23,0-4.21,0-6.94.21h0c-.5,0-1.22-.91-1.22-1.3,3.51.36,7.09.39,8.24.39h3.54a.87.87,0,0,0,.64-.26c.24-.18.63-.55.81-.65a.52.52,0,0,1,.29-.1c.49,0,2.36,1.32,2.36,1.87,0,.34-.36.6-.78.67a3.93,3.93,0,0,0-1.69.68c-.88.68-2.39,1.85-3.56,2.6l.16,0c.31.11.41.24.41.37s-.26.39-.54.54c-.55.29-.6.31-.6,2.91h6.24a.54.54,0,0,0,.44-.23c.36-.57,1.22-1.72,1.51-1.72.55,0,2.52,1.77,2.52,2.29,0,.16-.13.31-.57.31Z"/></g></g></svg>