<svg xmlns="http://www.w3.org/2000/svg" viewBox="0 0 192.89 16.28"><defs><style>.cls-1{fill:#333434;}</style></defs><g id="レイヤー_2" data-name="レイヤー 2"><g id="レイヤー_2-2" data-name="レイヤー 2"><path class="cls-1" d="M3.12,4.16a16.22,16.22,0,0,0-2.36.16h0C.52,4.32,0,3.66,0,3.46a21.57,21.57,0,0,0,3.15.25h.94a.34.34,0,0,0,.2-.14c.12-.22.55-.94.73-.94s.08,0,.09,0c.45.19,1.26,1,1.26,1.33,0,.11-.07.18-.32.18ZM3,1.73c-.2,0-.6.05-1.39.14h0C1.37,1.87.94,1.3.94,1a15.65,15.65,0,0,0,2.12.25h.47a.34.34,0,0,0,.2-.15s.47-.86.7-.86c0,0,.07,0,.09,0A2.11,2.11,0,0,1,5.67,1.51c0,.11-.07.22-.32.22ZM4.25,14.51H2.18l0,1.14c0,.32-.36.52-.67.52a.41.41,0,0,1-.45-.42V15.7c.11-1.35.13-2.23.13-3A15.2,15.2,0,0,0,1,9.87a.41.41,0,0,0,0-.09c0-.06,0-.06.06-.06l.12,0a6.18,6.18,0,0,1,1.43.68v0H3.87a.32.32,0,0,0,.24-.14c.14-.24.39-.49.48-.49s1.28.58,1.28,1c0,.18-.2.31-.36.41s-.32.31-.32,1,0,1.73.12,2.83v0a.6.6,0,0,1-.61.56.44.44,0,0,1-.47-.47ZM3,6.34c-.16,0-.66.07-1.22.14h0A1.15,1.15,0,0,1,1,5.64a14.93,14.93,0,0,0,2,.25h.54a.3.3,0,0,0,.2-.15s.43-.81.66-.81c0,0,.08,0,.09,0,.47.22,1.08.87,1.08,1.14s-.07.25-.32.25Zm0,2.3a9.88,9.88,0,0,0-1.22.15h0c-.23,0-.68-.58-.68-.85a13.23,13.23,0,0,0,2,.25h.54a.28.28,0,0,0,.2-.14c.09-.16.47-.81.66-.81s.08,0,.09,0c.17.07,1.08.72,1.08,1.15,0,.11-.07.23-.32.23ZM4.25,14c0-.59,0-1.11,0-1.58s0-.9,0-1.31c0-.06,0-.2-.12-.2H2.54L2.41,11c-.18.12-.21.25-.21.59,0,.76,0,1.6,0,2.41Zm9.88-1.4c0,.41.06,1.13.06,1.39a2,2,0,0,1-2,2.07c-.14,0-.18-.06-.27-.22-.21-.34-2-1.15-2-1.3H10a12,12,0,0,0,1.94.26c.81,0,1.19-.26,1.21-.92,0-.27,0-.74,0-1.28H8.32c0,1,0,2.16,0,3a.59.59,0,0,1-.63.61.41.41,0,0,1-.46-.44v0c0-1.1.09-2.18.1-3.13-.28,0-.63.05-1.08.1h0c-.31,0-.8-.61-.8-.82.78.09,1.39.14,1.91.18v-.76c0-.58,0-1.12,0-1.57a16.1,16.1,0,0,0-.21-2.25.28.28,0,0,1,0-.11h0a6.79,6.79,0,0,1,1.44.72h1.62a14.84,14.84,0,0,0-.05-1.52c-.91,0-2.18,0-3.66.18h0c-.34,0-.84-.64-.84-.86,1.11.13,2.32.2,3.29.23,0-.39,0-.91,0-1.44-.43,0-.95.08-1.59.15h0C7,4.9,6.54,4.25,6.54,4c.88.11,1.71.18,2.41.22V2.88C8.37,2.9,7.69,3,6.82,3h0C6.5,3,6,2.38,6,2.16c1.08.14,2.09.2,2.92.23V2A11.12,11.12,0,0,0,8.77.32a.27.27,0,0,1,0-.1s0,0,.05,0,1.72.18,1.72.56c0,.11-.13.25-.35.36s-.28.2-.3.66c0,.18,0,.42,0,.67H11.6c0-.2,0-.36,0-.47A11.2,11.2,0,0,0,11.43.32a.57.57,0,0,1,0-.12s0,0,0,0,1.73.13,1.73.56c0,.11-.13.25-.34.36s-.31.2-.33.66v.67h1.12a.29.29,0,0,0,.23-.16c.24-.38.62-.78.74-.78a.19.19,0,0,1,.13.06c.65.3,1.19.81,1.19,1.12,0,.1-.08.19-.33.19H12.5V4.29H13c.09,0,.16-.08.21-.17a1.89,1.89,0,0,1,.67-.65c.18,0,1.28.64,1.28,1,0,.11-.07.22-.31.22H12.5V6.23h1.76a.32.32,0,0,0,.24-.16c.16-.31.61-.83.75-.83s1.33.81,1.33,1.21c0,.1-.07.19-.3.19H11.49c.11.06.16.11.16.2s-.09.2-.29.29-.21.31-.21,1h1.71A.27.27,0,0,0,13.07,8a1.47,1.47,0,0,1,.34-.39.17.17,0,0,1,.11-.06c.18,0,1.33.6,1.33,1,0,.2-.19.31-.34.42s-.34,0-.36.41,0,1,0,1.62c0,.42,0,.83,0,1.19h.29a.32.32,0,0,0,.24-.16,2.15,2.15,0,0,1,.77-.79.18.18,0,0,1,.13,0c.61.29,1.19.77,1.19,1.12,0,.12-.08.23-.33.23Zm-3.92-4H8.59l-.05,0c-.22.18-.2.16-.22.65,0,.18,0,.47,0,.83h1.91Zm-1.91,2v1.58h1.89c0-.43,0-1,0-1.58Zm3.3-7.75H9.85c0,.43,0,.94,0,1.43H11.6Zm0,1.86H9.83c0,.56,0,1.1,0,1.51H11.6Zm-.45,3.9c0,.47,0,1,0,1.52H13.2c0-.52,0-1,0-1.32a.19.19,0,0,0-.2-.2Zm2,2H11.13c0,.63,0,1.2,0,1.58h2ZM24.91,6.34a5.64,5.64,0,0,0-1.53-1.26c-.15-.09-.22-.13-.22-.16s.72-.09.76-.09c1,0,2.25.27,2.25,1.17a.69.69,0,0,1-.63.72A.81.81,0,0,1,24.91,6.34ZM36.07,12.6v-.28H30.31l0,.48c0,.33-.34.52-.65.52a.41.41,0,0,1-.47-.43v-.05c.09-1.08.15-3.48.15-4.2a13.09,13.09,0,0,0-.19-2.1v0s0-.07.06-.07a6.18,6.18,0,0,1,1.48.65h2V6.88a14,14,0,0,0-.07-1.42c-.79,0-1.71,0-2.68.14h0c-.31,0-.76-.67-.76-.86,1.77.19,3.59.25,4.58.25h1.42a.31.31,0,0,0,.22-.13c.12-.23.59-.79.75-.79l.35.13a5.23,5.23,0,0,0,.3-1.1c0-.08,0-.11-.11-.11H29.84c-.05,1.06-.63,1.91-1.33,1.91A.63.63,0,0,1,28,4.7a2.54,2.54,0,0,1-.09.31C26.55,8.71,26,10.59,26,12.1a5.45,5.45,0,0,0,.27,1.73c.38,1.06,0,1.78-.54,1.78-.38,0-.77-.4-.77-1.21v-.16c0-.52.16-1.06.16-1.56,0-.74-.27-1.39-1.46-1.7-.3-.07-.43-.14-.43-.19s.16-.11.43-.11a1.33,1.33,0,0,0,1.5-.85c2.5-5,2.53-5.06,2.72-5.31a.47.47,0,0,1,0-.16.86.86,0,0,1,.32-.63,2.87,2.87,0,0,0,1.15-2.09c0-.13.06-.18.09-.18a2,2,0,0,1,.38,1.08H32.7v-.7a8.34,8.34,0,0,0-.19-1.7.27.27,0,0,1,0-.1s0,0,0,0,2,.25,2,.65c0,.11-.1.21-.29.3-.39.22-.46.15-.48.74,0,.13,0,.56,0,.85h2.94A.53.53,0,0,0,37,2.39,1,1,0,0,1,37.53,2C37.66,2,39,2.75,39,3.29c0,.22-.19.4-.72.42a3.76,3.76,0,0,0-1.51.68c.49.31.74.63.74.81s-.07.24-.34.24H34.11a.13.13,0,0,1,.07.11c0,.09-.11.19-.25.25s-.24.12-.24.38,0,.59,0,.91h2a.23.23,0,0,0,.22-.1c.19-.22.36-.42.54-.42s1.28.54,1.28,1c0,.16-.2.27-.38.37s-.33.2-.33.69v.2c0,.92.09,3,.13,3.69a.64.64,0,0,1-.65.61.43.43,0,0,1-.45-.47ZM26.29,2.65a5.29,5.29,0,0,0-1.38-1.48c-.15-.11-.22-.16-.22-.2s.09,0,.29,0c1.06,0,2.68.48,2.68,1.49a.71.71,0,0,1-.66.74A.87.87,0,0,1,26.29,2.65Zm6,11.83h-.11a2.51,2.51,0,0,0-.27,0,.6.6,0,0,0-.3.11,12.6,12.6,0,0,1-5.53,1.51c-.22,0-.33,0-.33-.09s.11-.11.35-.14c1.56-.26,4.55-1.53,5.11-2.52,0-.08.07-.13.11-.13a3.1,3.1,0,0,1,1.29,1.13C32.61,14.44,32.45,14.48,32.29,14.48Zm-1.6-6.92a.48.48,0,0,1-.11.09c-.22.15-.25.15-.27.7,0,.18,0,.54,0,1h2.43c0-.6,0-1.21,0-1.77Zm-.4,2.23c0,.67,0,1.43,0,2.06H32.7c0-.65,0-1.35,0-2.06Zm3.39-2.23V9.33h2.43c0-.63,0-1.19,0-1.57a.19.19,0,0,0-.18-.2Zm0,2.23c0,.72,0,1.43,0,2.06h2.4c0-.63,0-1.37,0-2.06Zm3.56,5.62A11.14,11.14,0,0,0,34,13.63c-.11,0-.15-.09-.15-.14s.06-.08.16-.08c.67,0,4.63.49,4.63,1.93a.49.49,0,0,1-.52.52A1.41,1.41,0,0,1,37.24,15.41ZM54.79,9.67a1.61,1.61,0,1,1,1.6-1.6A1.6,1.6,0,0,1,54.79,9.67Zm20.12.38a3,3,0,0,1-1.51.57c-.52,0-2-.3-2-1,0-.16.11-.22.26-.22a1.88,1.88,0,0,1,.36.07,1.38,1.38,0,0,0,.46.06,11.58,11.58,0,0,0,3.77-1.1V7.63c0-2.19-.31-3.11-1.16-3.17-.48,0-.66-.14-.66-.26a1,1,0,0,1,1-.49c.74,0,2.14.83,2.14,1.91,0,.47-.18,1-.25,1.64,0,.23,0,.46-.07.72,1.13-.47,2.27-.92,3.13-1.23S81.14,6,81.7,6s2.11.56,2.11,1.06-.78.65-1.12,1a13.49,13.49,0,0,1-3.38,2.78.05.05,0,0,1-.06-.06.54.54,0,0,1,.16-.25,11,11,0,0,0,2.07-3.19c0-.16-.1-.21-.27-.21a17.49,17.49,0,0,0-4.06,1.69C77.07,9.92,77,11,77,11.54c0,.78.11,1.68,2.39,1.68a9.63,9.63,0,0,0,1.07-.08c.84-.09,1.27-.59,2-.68a1.32,1.32,0,0,1,.28,0c.07,0,1.31,0,1.31.63,0,1.12-4.38,1.12-4.61,1.12-1.21,0-3.4-.11-3.4-2.36a1.67,1.67,0,0,1,0-.32c.07-.87.12-1.55.14-2.17Zm25,4.25a15.18,15.18,0,0,0-5-2.83c-.34-.13-.52-.22-.52-.29s.07,0,.24,0c1.36,0,6.8,1,6.8,2.88a.63.63,0,0,1-.65.68A1.25,1.25,0,0,1,99.89,14.3Zm-1.7-5.6A7.82,7.82,0,0,0,95,7.08c-.27-.06-.42-.13-.42-.17s.24-.1,1-.1c1.75,0,3.89.41,3.89,1.49a.63.63,0,0,1-.63.65A1.07,1.07,0,0,1,98.19,8.7Zm1.25-3.93a10.06,10.06,0,0,0-4-1.51c-.32,0-.49-.11-.49-.16a6.14,6.14,0,0,1,2-.2c3,0,3.76.92,3.76,1.51a.58.58,0,0,1-.59.61A1.17,1.17,0,0,1,99.44,4.77ZM118.68,7V7A8.32,8.32,0,0,1,112,15.12a3.51,3.51,0,0,1-.7.13s-.07,0-.07,0,.19-.18.73-.41a9.13,9.13,0,0,0,5.6-7.74c-.79.09-1.49.19-2.43.36a10.29,10.29,0,0,1-1.89.45c-.72,0-2.18-.53-2.18-1.34,0-.25.06-.32.15-.32s.25.13.43.18a6.36,6.36,0,0,0,2.07.4,5.09,5.09,0,0,0,.77-.06c1.18-.12,2.17-.27,3.08-.38-.09-2.62-.23-3.45-1-3.51-.11,0-.33-.09-.33-.23s.42-.4.63-.4c.69,0,2.11.7,2.11,1.24a1.22,1.22,0,0,1-.13.45,5,5,0,0,0-.19,1.86c0,.16,0,.29,0,.47L120.79,6c.65-.09.86-.27,1.28-.27.66,0,2.14.48,2.14,1.1,0,.27-.29.46-.65.46a1,1,0,0,1-.3,0,10.31,10.31,0,0,0-2.81-.4,13,13,0,0,0-1.34.07Zm25.75,1.53a58.12,58.12,0,0,0-8.16.45,4.55,4.55,0,0,1-1,.16c-.92,0-2.31-.9-2.31-1.58,0-.15,0-.2.13-.2a1.43,1.43,0,0,1,.5.25,4.16,4.16,0,0,0,1.73.25c.29,0,5.8-.25,8.16-.43a6,6,0,0,1,.63,0c.41,0,1.67,0,1.67.53C145.76,8.21,145.08,8.46,144.43,8.48ZM161.33,7a24.07,24.07,0,0,0-2.61.16h0c-.2,0-.52-.32-.69-.59a12.57,12.57,0,0,1-4.68,2.71s-.05,0-.05,0,.16-.18.47-.36a17.06,17.06,0,0,0,6.53-7.15c0-.07-.05-.11-.18-.11h-.43c-.52,0-1.69.06-2.7.18h0c-.25,0-.81-.72-.81-.93a30.71,30.71,0,0,0,3.49.27h.58a.42.42,0,0,0,.32-.13c.2-.23.33-.38.47-.38a2.39,2.39,0,0,1,1.26,1c0,.11-.07.22-.25.31a13,13,0,0,0,1.28,1.44A7.75,7.75,0,0,0,164.8,1c0-.11,0-.16.07-.16s1.62.88,1.62,1.22c0,.11-.09.18-.3.18l-.29,0a.39.39,0,0,0-.14,0c-.15,0-.2.07-.35.16-.5.36-1.06.7-1.92,1.21A20.52,20.52,0,0,0,165.16,5a6.62,6.62,0,0,0,1.75-2.22c.05-.11.07-.16.12-.16s1.48,1,1.48,1.31c0,.09-.09.17-.27.17a1.16,1.16,0,0,1-.34-.06l-.2,0c-.11,0-.14.05-.29.14-.45.27-1.13.68-1.91,1.1a11.19,11.19,0,0,0,4.65,2.14c.11,0,.16,0,.16,0s-1.58.44-2,.85a.31.31,0,0,1-.18.09C167.59,8.39,164,6,161.69,2a.66.66,0,0,0-.35.35,15.71,15.71,0,0,1-3.09,4,28.17,28.17,0,0,0,3.13.2h1.15a.27.27,0,0,0,.22-.15,5.32,5.32,0,0,1,.61-.84.16.16,0,0,1,.13-.06l.1,0c.53.23,1.3.92,1.3,1.26,0,.09-.07.2-.32.2Zm-1.5,8.51c-1,0-3.53,0-5.13.2h0c-.32,0-.79-.66-.79-.92h0c1.86.21,5,.28,6,.28h2.34a7.31,7.31,0,0,0,.89-2.41c0-.11,0-.16.05-.16s1.84.7,1.84,1.08c0,.13-.13.23-.45.23h-.15A.53.53,0,0,0,164,14,13.32,13.32,0,0,1,162.82,15h3.51a.38.38,0,0,0,.31-.16c.68-1,.81-1.1,1-1.1a.18.18,0,0,1,.1,0c.62.22,1.61,1.19,1.61,1.48,0,.11-.09.21-.4.21Zm-3-11a5.14,5.14,0,0,0-1.35-1.42c-.13-.11-.2-.17-.2-.2s.09,0,.27,0c1,0,2.59.45,2.59,1.44a.68.68,0,0,1-.63.72A.81.81,0,0,1,156.79,4.52Zm7.47,7.67V11.9h-5.49c0,.15,0,.27,0,.36,0,.33-.4.49-.67.49s-.52-.13-.52-.42v-.05c.07-.76.14-2,.14-2.36a9.52,9.52,0,0,0-.2-1.78.59.59,0,0,1,0-.11s0,0,0,0a6.59,6.59,0,0,1,1.64.71h4.69a.3.3,0,0,0,.23-.1c.13-.13.27-.36.38-.44a.34.34,0,0,1,.2-.07c.14,0,1.4.6,1.4,1,0,.18-.23.29-.43.4s-.34.3-.34.61.07,1.46.1,2-.41.58-.64.58a.46.46,0,0,1-.51-.45Zm-4.63,2.25a4.25,4.25,0,0,0-1-1.42c-.11-.11-.16-.16-.16-.2s0,0,.09,0,2.37.35,2.37,1.44a.69.69,0,0,1-.66.72A.64.64,0,0,1,159.63,14.44Zm-.46-5.27a1.38,1.38,0,0,1-.17.08c-.27.15-.27.17-.27,1.21,0,.31,0,.67,0,1h5.51V9.33a.22.22,0,0,0-.22-.16Zm20.72-3c0,1.8,0,3.73,0,4.79.89-.3,1.81-.63,2.49-.9a.87.87,0,0,1,.23-.05s.08,0,.08.05c0,.34-4.43,2.58-5,2.87-.16.07-.18.25-.28.25a3.64,3.64,0,0,1-1.07-1.26c0-.06,0-.07.09-.07a9.63,9.63,0,0,0,2.43-.53c0-1.22,0-3.31,0-5.13-.52,0-1,.11-1.62.16h0c-.27,0-.81-.64-.81-.88,1.15.15,1.84.22,2.45.25,0-1.13,0-2.12,0-2.68a16.78,16.78,0,0,0-.21-2.7.18.18,0,0,1,0-.09s0-.05,0-.05,2.05.34,2.05.75c0,.16-.19.31-.45.42s-.37.32-.37,4.37h.18c.1,0,.14-.07.19-.16s.54-.88.76-.88c.4,0,1.31,1,1.31,1.28s-.07.19-.34.19Zm4.86,9a36.08,36.08,0,0,0-3.77.2h0c-.31,0-.85-.7-.85-.93a39.47,39.47,0,0,0,4.72.28h5.36a.36.36,0,0,0,.29-.16c.09-.14.63-.93.87-.93s1.53.82,1.53,1.33c0,.11-.08.21-.36.21Zm1.6-12.4a37.35,37.35,0,0,0-3.94.2h0c-.33,0-.83-.69-.83-.92a47.68,47.68,0,0,0,4.81.29,11.2,11.2,0,0,0-.16-2.16.48.48,0,0,1,0-.13s0,0,0,0c.34,0,2,.27,2,.65,0,.11-.11.23-.27.34-.38.27-.47.09-.49.72l0,.6h2.49a.33.33,0,0,0,.27-.17c.2-.37.76-1,.94-1a.18.18,0,0,1,.1,0c.31.11,1.46.94,1.46,1.35,0,.11-.09.2-.36.2Zm3.82,5.9V8.59h-6.54v.09c0,.38-.38.5-.61.5a.4.4,0,0,1-.45-.39V8.71c.09-1.06.13-2.53.13-3.24a11.75,11.75,0,0,0-.17-2,.34.34,0,0,1,0-.13s0,0,0,0a4.07,4.07,0,0,1,1.48.6l.09.07h5.69c.09,0,.12,0,.19-.11.33-.38.44-.43.54-.43s1.28.63,1.28,1c0,.18-.19.29-.39.4s-.29.18-.29.57v.22c0,.83.07,2.32.11,3a.57.57,0,0,1-.63.59.42.42,0,0,1-.45-.45ZM184,4.43l-.13.09c-.21.14-.27,0-.29.52v.69c0,.68,0,1.65,0,2.41h6.54c0-.74,0-1.55,0-2.27,0-.47,0-.88,0-1.24a.2.2,0,0,0-.2-.2Zm4.77,9.24v-.24H185v.29a.62.62,0,0,1-.63.59.4.4,0,0,1-.41-.45v-.09c.07-.75.12-2.08.12-2.77a11.69,11.69,0,0,0-.14-1.69.64.64,0,0,0,0-.09s0,0,0,0a5.9,5.9,0,0,1,1.4.61h3.15a.25.25,0,0,0,.22-.14,1.14,1.14,0,0,1,.43-.43s1.21.59,1.21.95c0,.16-.18.25-.31.34a.5.5,0,0,0-.3.51v.18c0,.45.1,2,.1,2.3a.66.66,0,0,1-.63.67c-.21,0-.41-.14-.41-.49Zm-.9-6.45v0h-2.11v.1c0,.24-.27.38-.52.38s-.38-.09-.38-.3v0c0-.4.09-.95.09-1.22a5.45,5.45,0,0,0-.12-1s0,0,0-.09,0,0,0,0a7.16,7.16,0,0,1,1.19.41l0,0h1.49a.19.19,0,0,0,.18-.09c.09-.11.31-.34.4-.34a.19.19,0,0,1,.1,0c.18.06.91.4.91.65s-.15.22-.28.29-.21.12-.21.47,0,.52.07.77c.05.45-.47.45-.5.45a.34.34,0,0,1-.38-.34Zm-2.52,3a.43.43,0,0,1-.13.09c-.25.16-.25.15-.27.53,0,.08,0,.27,0,.46h3.86c0-.36,0-.66,0-.88a.21.21,0,0,0-.2-.2Zm3.44,1.53H185c0,.38,0,.81,0,1.19h3.84Zm-2.78-6a.14.14,0,0,1-.07.06c-.16.1-.2.1-.2.36v.59h2.15c0-.32,0-.67,0-.86a.16.16,0,0,0-.16-.15Z"/></g></g></svg>