<svg xmlns="http://www.w3.org/2000/svg" viewBox="0 0 26.94 193.34"><defs><style>.cls-1{fill:#333434;}</style></defs><g id="レイヤー_2" data-name="レイヤー 2"><g id="レイヤー_2-2" data-name="レイヤー 2"><path class="cls-1" d="M14.53,17.58c2.07,3.08,6.11,5.24,11.54,5.24h.19c.2,0,.28,0,.28.06,0,.22-2.54,1-3.08,1.82a.44.44,0,0,1-.39.19c-1.4,0-7.33-2.32-9.07-7.31h-.34C11.48,25,1.37,25.09,1.12,25.09S.67,25,.67,25s.39-.26.79-.34c5.23-.92,9.07-3.22,10.44-7.06H10.67c-1.54,0-5.18.06-7.67.28H3c-.48,0-1.29-.95-1.29-1.34v0c2.83.34,7.5.39,9.1.39h1.34a12.3,12.3,0,0,0,.34-3.19H11.4a44.15,44.15,0,0,0-4.85.25h0c-.44,0-1.26-.95-1.26-1.31v0a53.58,53.58,0,0,0,6.25.39h1c0-1.17,0-2.1-.06-3.05H10.84a50.39,50.39,0,0,0-5.21.25h0c-.42,0-1.18-.89-1.18-1.31v0a58.12,58.12,0,0,0,6.5.39h1.51a25,25,0,0,0-.28-3.36.45.45,0,0,1,0-.17s0,0,.06,0,3.19.39,3.19,1c0,.2-.22.42-.59.62-.53.31-.61.11-.64,1.17v.76h3.72a.58.58,0,0,0,.4-.22c.22-.37,1-1.46,1.4-1.46a.3.3,0,0,1,.16,0c.93.33,2.33,1.48,2.33,2,0,.17-.14.34-.62.34H14.11c0,.9,0,2,0,3.05h2.8a.51.51,0,0,0,.36-.22c.28-.45,1-1.37,1.29-1.37l.2,0c.87.34,2.15,1.35,2.15,1.94,0,.16-.14.33-.58.33H14.14a16.77,16.77,0,0,1-.28,3.19h6.41a.6.6,0,0,0,.42-.22c.14-.22,1.12-1.71,1.57-1.71.08,0,.14,0,.2,0a5.24,5.24,0,0,1,2.43,2.27c0,.17-.14.33-.61.33ZM5.52,5C5.15,7.62,3.58,8.57,2.69,8.57a.94.94,0,0,1-1-.9,1.69,1.69,0,0,1,.73-1.23,5.79,5.79,0,0,0,2.6-4c.06-.2.12-.31.17-.31s.42,1.37.42,2.16h6.86V4A22.09,22.09,0,0,0,12.12.22a.72.72,0,0,1,0-.19s0,0,0,0c.56,0,3.31.45,3.31,1.06,0,.23-.2.42-.53.62-.59.36-.59.34-.68,1.18,0,.44-.05,1-.08,1.4h7A.89.89,0,0,0,21.53,4c.09-.11.59-.67.93-.67l.11,0c.7.25,2.27,1.37,2.27,2.13,0,.3-.31.58-1.1.61A9.6,9.6,0,0,0,20,7.28a1.26,1.26,0,0,1-.22.06c-.06,0-.06,0-.06,0a.39.39,0,0,1,.11-.2,11.21,11.21,0,0,0,1.37-2A.15.15,0,0,0,21.06,5ZM.64,57.09a.81.81,0,0,1,.12-.36A20.62,20.62,0,0,0,2.38,50a4.77,4.77,0,0,0-.06-.73,1.11,1.11,0,0,1,0-.23s0-.08.08-.08c.22,0,2.88.67,2.88,1.23,0,.2-.19.39-.67.51s-.45.28-.59.64c-1.06,2.72-2.88,5.8-3.3,5.8C.67,57.18.64,57.15.64,57.09Zm3.2-11.34c1.82-2.46,4.53-7.17,4.76-8.65,0-.22.05-.28.11-.28.25,0,2.43,1,2.43,1.54,0,.22-.22.39-.78.45a.8.8,0,0,0-.64.42,60.21,60.21,0,0,1-5.24,6.49C6,45.64,7.76,45.53,9,45.36a12.46,12.46,0,0,0-.93-1.74.89.89,0,0,1-.17-.33A.06.06,0,0,1,8,43.23c.42,0,3.25,1.77,3.25,3.33a1.06,1.06,0,0,1-.93,1.15c-.39,0-.81-.33-.92-1.12a3,3,0,0,0-.2-.73l-1.59.48c.22.08.33.2.33.31s-.11.22-.33.36c-.37.17-.37.17-.37,2.69,0,2.27.06,5.68.12,8a1.08,1.08,0,0,1-1.07,1,.73.73,0,0,1-.73-.82v-.11c.2-3,.28-6,.28-9,0-.7,0-1.45-.05-2-1.15.28-2.21.56-2.75.7-.28.08-.44.33-.67.33C1.93,47.82,1,46,1,45.72c0,0,0,0,.05,0s.12,0,.2,0c.64,0,1.4.08,1.93.08h.48Zm1.79-4.31a.92.92,0,0,1-.87,1,1.08,1.08,0,0,1-.9-.67,7,7,0,0,0-2-2.21c-.17-.14-.26-.23-.26-.28s.06-.09.17-.09a6.52,6.52,0,0,1,1.77.39c1.59-4,1.59-5,1.59-5.65,0-.23,0-.31.09-.31S8,34.55,8,35.08c0,.2-.22.4-.75.48a.73.73,0,0,0-.62.42,34.16,34.16,0,0,1-2.52,3.75C5,40.12,5.63,40.77,5.63,41.44Zm11.45,14.9h-.2a3.46,3.46,0,0,0-.39-.06.94.94,0,0,0-.47.17,20.46,20.46,0,0,1-8.43,2.21c-.34,0-.53-.06-.53-.14s.16-.17.53-.22c1.57-.23,6.3-1.6,7.92-3.76.09-.11.11-.16.2-.16s1.87,1.2,1.87,1.73C17.58,56.31,17.33,56.34,17.08,56.34Zm-7.7-4.06a12.86,12.86,0,0,0-1.51-3.56.91.91,0,0,1-.17-.34s0,0,0,0c.33,0,3.5,1.93,3.5,3.8a1,1,0,0,1-.9,1.1C9.94,53.26,9.58,53,9.38,52.28Zm7.5-9.13a47.84,47.84,0,0,0-5.43.28h0c-.47,0-1.31-1.07-1.31-1.4a60.6,60.6,0,0,0,6.91.42h.06c0-.62.06-1.4.06-2.19a28,28,0,0,0-3.84.26h0c-.47,0-1.29-1-1.29-1.32a37.5,37.5,0,0,0,5.16.39c0-1,0-1.76,0-1.87v-.2h-.25a39.85,39.85,0,0,0-4.51.28h0c-.48,0-1.26-1-1.26-1.37a46.26,46.26,0,0,0,5.91.42h.14a11.91,11.91,0,0,0-.31-2.94.48.48,0,0,1,0-.17s0-.06,0-.06,3.08.31,3.08,1c0,.14-.17.31-.45.45-.61.34-.73.11-.75,1.4v.34h2.63a.52.52,0,0,0,.42-.25A3.56,3.56,0,0,1,23,35.31c.33,0,2.18,1.09,2.18,1.85,0,.16-.11.36-.53.36h-6c0,.62,0,1.37,0,2.07H20.1a.57.57,0,0,0,.4-.25c.16-.22.84-1.12,1.17-1.12a.71.71,0,0,1,.2.06c.89.39,1.93,1.2,1.93,1.65,0,.17-.11.33-.53.33H18.62c0,.9,0,1.68.06,2.19H22.2a.49.49,0,0,0,.42-.23c.06,0,.93-1.34,1.24-1.34s2.29,1.18,2.29,1.88c0,.19-.11.39-.53.39Zm4.37,10.36H14.5V54a.91.91,0,0,1-1,.81.66.66,0,0,1-.7-.67V54c.12-1.59.17-5.29.17-6.58a18.14,18.14,0,0,0-.31-3,.56.56,0,0,1,0-.17s0,0,0,0a12.06,12.06,0,0,1,2.44,1l0,0h5.51c.14,0,.28,0,.37-.14a2.87,2.87,0,0,1,.53-.64.62.62,0,0,1,.25-.09c.23,0,2,.84,2,1.43,0,.28-.34.48-.59.62-.45.25-.5.33-.5,1.51,0,1.65.14,4.51.19,5.63v.05a1,1,0,0,1-1,.87.61.61,0,0,1-.67-.64Zm.06-5.1H14.45v1.71h6.86ZM15,46l-.12.08c-.3.2-.42.14-.44,1v.67h6.83c0-.61,0-1.15-.06-1.51A.27.27,0,0,0,21,46Zm-.56,4.84c0,.65,0,1.32,0,2h6.75c0-.59,0-1.29,0-2Zm8.84,7A15.63,15.63,0,0,0,18.59,55c-.17-.05-.22-.14-.22-.19s.08-.11.22-.11c1.32,0,7,1,7,3.08a.79.79,0,0,1-.82.84A2.15,2.15,0,0,1,23.32,57.82ZM14.11,75.91c0,6.13-4.9,12.37-7.31,12.37-1.37,0-1.87-1.87-3-3.52a4.37,4.37,0,0,1-.67-2.55c0-4.26,3.72-11,11.28-11,6.36,0,9.63,4.4,9.63,9,0,8.52-9.74,10.92-12,10.92-.25,0-.39,0-.39-.11s.45-.36,1.26-.59c7.37-2,9.35-6.86,9.35-10.33,0-4.14-2.85-7.92-8.17-7.92-.34,0-.67,0-1,.05C13.72,72.69,14.11,74.12,14.11,75.91Zm-1-1c0-2-.47-2.49-1.09-2.49a1,1,0,0,0-.28,0,.94.94,0,0,1-.22,0,9.9,9.9,0,0,0-7,9.1c0,2.47,1.23,4.34,2.57,4.34C9,85.9,13.13,80.05,13.13,74.9ZM14.45,124c-4.43,0-8-2-8-4.48a3.33,3.33,0,0,1,1.46-2.69c.08,0,.11.08.11.19a1.12,1.12,0,0,1-.2.56,2.37,2.37,0,0,0-.44,1.29c0,1.9,3.13,3.19,6.38,3.19a11,11,0,0,0,2.38-.25c1.26-.28,1.88-.67,2.6-.81a5.24,5.24,0,0,1,.65-.06c.87,0,1.43.37,1.43.87C20.78,122.86,18,124,14.45,124Zm3.11-16.08a10.42,10.42,0,0,0-5,2.24,1.44,1.44,0,0,1-.7.37c-.09,0-.12,0-.12-.11a1.07,1.07,0,0,1,.28-.51,15.46,15.46,0,0,0,1.6-2.07c0-.14-.14-.2-.42-.2s-.84,0-1.26,0C9,107.29,8,105.5,8,105.36s.05-.08.14-.08a4.17,4.17,0,0,1,.87.25,10.54,10.54,0,0,0,3.66.51c.87,0,1.74,0,2.64-.06.44,0,.81-.08,1.26-.08,1.28,0,2.18.7,2.18,1.26C18.76,107.52,18.4,107.85,17.56,107.88Zm3-1.4a8.93,8.93,0,0,0-2.4-2c-.23-.11-.42-.22-.42-.28s1.06-.19,1.09-.19c2.24,0,3.3,1,3.3,1.9a.88.88,0,0,1-.81,1A1.08,1.08,0,0,1,20.52,106.48Zm2.94-1.37A9.22,9.22,0,0,0,21,103.24c-.22-.12-.45-.2-.45-.26s.73-.22,1.29-.22c1.32,0,3.16.48,3.16,1.82a.85.85,0,0,1-.81.9A1.11,1.11,0,0,1,23.46,105.11Zm-23,53.15a.76.76,0,0,1,.11-.37,22.84,22.84,0,0,0,1.93-7.81c0-.28.06-.28.06-.28.36,0,2.77.73,2.77,1.29,0,.19-.2.36-.67.47s-.48.26-.62.65c-1.51,4-3.25,6.13-3.53,6.13C.5,158.34.48,158.31.48,158.26Zm18.14-20.7a1.06,1.06,0,0,1,.14,0c.39.11.53.23.53.37s-.33.39-.61.5-.31.2-.42.67A10.16,10.16,0,0,1,11.48,147a2,2,0,0,1,.06.42,1.1,1.1,0,0,1-1,1.21c-.4,0-.79-.34-.93-1.15a5.89,5.89,0,0,0-.17-.79c-.47.14-1.06.31-1.7.48.16.08.28.17.28.28s-.12.25-.34.36c-.39.23-.39.26-.39,2.72,0,2.27.05,5.71.11,8a1.06,1.06,0,0,1-1.09,1c-.37,0-.7-.22-.7-.81v-.11c.19-3,.28-6,.28-9,0-.7,0-1.45-.06-2-1.2.28-2.32.56-2.85.67-.28.06-.48.34-.68.34S1,146.75,1,146.47c0,0,0-.06.05-.06s.12,0,.2,0a17.92,17.92,0,0,0,2,.11H4c.62-.87,4.12-5.91,4.51-8.45,0-.23.06-.28.11-.28.23,0,2.52,1.09,2.52,1.51,0,.19-.22.39-.78.45a.83.83,0,0,0-.64.42,75,75,0,0,1-5.07,6.3c1.51-.09,3.33-.2,4.62-.34a10.82,10.82,0,0,0-.93-1.76.83.83,0,0,1-.16-.34c0-.06,0-.06.05-.06a6.2,6.2,0,0,1,3.08,2.52,10.44,10.44,0,0,0,5.38-8.93c-1.32.06-3,.14-3.87.23h0c-.42,0-1.26-1-1.26-1.38a62.74,62.74,0,0,0,6.52.4H22.2a.44.44,0,0,0,.42-.26c.34-.44.54-.61.68-.61.42,0,2.1,1,2.1,1.48,0,.2-.14.39-.56.56s-.59.2-.65,1c-.14,2.41-.28,3.95-1,5.38a4.16,4.16,0,0,1-3.64,2.38c-.65,0-.73-.23-.79-.31-.28-.65-2.13-1.85-2.13-2.05,0,0,0,0,.06,0l.25,0a9.49,9.49,0,0,0,2.55.62,2.39,2.39,0,0,0,2.13-1.29c1-1.6,1-3.72,1-5.85,0-.31,0-.37-.26-.37ZM5.74,142.3a1,1,0,0,1-.87,1,1.2,1.2,0,0,1-1-.78,7.11,7.11,0,0,0-2.1-2.35c-.19-.14-.25-.26-.25-.31s.06-.06.14-.06a6.5,6.5,0,0,1,2.07.48c1.49-3.7,1.63-4.85,1.63-5.46v-.39c0-.12,0-.14.05-.14s2.75.92,2.75,1.45c0,.17-.23.37-.76.45a.69.69,0,0,0-.61.45A40.8,40.8,0,0,1,4.2,140.5C5.52,141.12,5.74,141.74,5.74,142.3Zm2.41,7.81c.31,0,3.55,2,3.55,4a1.08,1.08,0,0,1-.92,1.2c-.36,0-.76-.3-.92-1a14.3,14.3,0,0,0-1.54-3.78,1.56,1.56,0,0,1-.2-.36Zm13.52,8.09v-1H15.23l0,1.21a1,1,0,0,1-1,.89.7.7,0,0,1-.78-.73v-.08c.17-2.46.2-4,.2-5.15a24.84,24.84,0,0,0-.34-5,.89.89,0,0,0,0-.17c0-.06,0-.08.06-.08a14.42,14.42,0,0,1,2.57,1.2l0,0h5.13a.49.49,0,0,0,.39-.23c.45-.7.7-.78.81-.78s2.24.92,2.24,1.65c0,.31-.36.51-.64.67-.54.34-.56.56-.56,2.19,0,1.4.08,3.16.22,5.23.06.7-.67,1-1.06,1a.74.74,0,0,1-.79-.81Zm0-1.74c0-1.2,0-2.26,0-3.22,0-1.14,0-2.1-.06-2.88a.35.35,0,0,0-.39-.34h-5.4a.79.79,0,0,1-.17.14c-.42.31-.45.23-.48,1.07s0,1.65,0,2.38c0,1,0,1.85,0,2.85ZM13.83,170.1c2.16,2.8,7.65,7.45,12.85,8.6.17,0,.26.08.26.14,0,.25-2.47.67-3.11,1.28a.34.34,0,0,1-.25.12c-.65,0-6.7-3.78-10.17-9.83l-.14.19C7.92,178.78,1,181.78.08,181.78c0,0-.08,0-.08,0s.14-.2.45-.39A32.28,32.28,0,0,0,11.26,169.9a7.71,7.71,0,0,0,.58-1.93c0-.11,0-.19.06-.19S15,169,15,169.51c0,.23-.28.42-.93.53ZM1.29,193.34c-.17,0-.28,0-.28-.08s.22-.23.78-.4c6.05-1.87,7.09-7.11,7.09-11.11a28.55,28.55,0,0,0-.26-4c0-.05,0-.11,0-.14s0-.08.08-.08c.22,0,3.11.33,3.11.92,0,.14-.14.31-.51.48-.61.25-.64.25-.64,1.23,0,.7,0,1.4,0,2.13,0,5.26-2.27,9.57-8.57,10.92A5.91,5.91,0,0,1,1.29,193.34Zm14-1.43c.06-2.52.11-5.07.11-7.61a50.05,50.05,0,0,0-.28-6.64.45.45,0,0,1,0-.17s0,0,0,0,3.14.34,3.14.9c0,.17-.17.31-.45.48-.59.33-.67.14-.7,1.17,0,.87,0,1.71,0,2.55,0,2.8.11,5.49.25,9.27v0c0,.53-.61.86-1.17.86a.77.77,0,0,1-.87-.78Z"/></g></g></svg>